<?xml version="1.0" encoding="UTF-8" standalone="no"?>
<!-- Created with Inkscape (http://www.inkscape.org/) -->

<svg
   xmlns:dc="http://purl.org/dc/elements/1.1/"
   xmlns:cc="http://creativecommons.org/ns#"
   xmlns:rdf="http://www.w3.org/1999/02/22-rdf-syntax-ns#"
   xmlns:svg="http://www.w3.org/2000/svg"
   xmlns="http://www.w3.org/2000/svg"
   xmlns:sodipodi="http://sodipodi.sourceforge.net/DTD/sodipodi-0.dtd"
   xmlns:inkscape="http://www.inkscape.org/namespaces/inkscape"
   version="1.1"
   id="svg64"
   width="245"
   height="245"
   viewBox="0 0 245 245"
   sodipodi:docname="corriol.svg"
   inkscape:version="0.92.5 (2060ec1f9f, 2020-04-08)"
   inkscape:export-filename="/home/vicent/logo.png"
   inkscape:export-xdpi="151"
   inkscape:export-ydpi="151">
  <metadata
     id="metadata70">
    <rdf:RDF>
      <cc:Work
         rdf:about="">
        <dc:format>image/svg+xml</dc:format>
        <dc:type
           rdf:resource="http://purl.org/dc/dcmitype/StillImage" />
        <dc:title></dc:title>
      </cc:Work>
    </rdf:RDF>
  </metadata>
  <defs
     id="defs68" />
  <sodipodi:namedview
     pagecolor="#ffffff"
     bordercolor="#666666"
     borderopacity="1"
     objecttolerance="10"
     gridtolerance="10"
     guidetolerance="10"
     inkscape:pageopacity="0"
     inkscape:pageshadow="2"
     inkscape:window-width="1280"
     inkscape:window-height="995"
     id="namedview66"
     showgrid="false"
     inkscape:zoom="3.4122449"
     inkscape:cx="97.380946"
     inkscape:cy="137.46237"
     inkscape:window-x="0"
     inkscape:window-y="0"
     inkscape:window-maximized="1"
     inkscape:current-layer="g31192" />
  <g
     id="g30314"
     transform="translate(2.2181818e-6,0.29306265)">
    <g
       id="g31254"
       style="fill:#ffffff"
       transform="translate(28.17233,-50.879595)">
      <g
         style="fill:#ffffff"
         transform="translate(3.1280503,18.456841)"
         id="g31234">
        <g
           transform="translate(-25.732199,15.132084)"
           id="g31214"
           style="fill:#ffffff">
          <g
             id="g31202"
             transform="translate(-32.59595,26.500414)"
             style="fill:#ffffff">
            <path
               inkscape:export-ydpi="151"
               inkscape:export-xdpi="151"
               inkscape:export-filename="/home/vicent/logo.png"
               inkscape:connector-curvature="0"
               id="path31194"
               d="m 134.05016,202.22046 c 0.4547,-1.81165 0.22546,-2.5 -0.83257,-2.5 -5.6437,0 -2.42911,-3.79043 8.53634,-10.06547 8.16004,-4.66963 8.89373,-5.34407 8.98527,-8.25968 0.0548,-1.74617 0.49669,-4.29985 0.98191,-5.67485 0.61425,-1.7406 0.71632,-0.83691 0.33603,2.975 -0.67377,6.7537 -1.06936,7.23333 -10.01598,12.14352 -10.59156,5.81298 -12.25104,8.83081 -2.87821,5.23411 1.47556,-0.56622 1.55285,-0.36368 0.56536,1.48146 -1.07589,2.01033 -0.98979,2.07877 1.44877,1.15163 3.39379,-1.29032 3.46244,-1.27584 3.46244,0.73012 0,1.17547 1.69338,0.0435 5.37701,-3.59438 5.9967,-5.92221 5.50004,-4.27106 8.6093,-28.62146 0.9832,-7.7 1.83442,-12.425 1.89161,-10.5 0.0928,3.12351 -1.63521,17.89135 -3.49757,29.89086 -1.09466,7.0531 -16.29186,22.26 -15.74146,15.75151 0.17911,-2.11799 -0.28091,-2.06912 -3.36602,0.35763 -3.40668,2.67969 -4.62083,2.52251 -3.86223,-0.5 z m -22.41064,-2.8 c 0,-0.715 0.52422,-1.82422 1.16493,-2.46493 0.88658,-0.88658 0.286,-0.92225 -2.51343,-0.14929 -3.92705,1.08431 -5.6515,0.61508 -5.6515,-1.53781 0,-0.7337 -0.675,-1.59301 -1.5,-1.9096 -5.470696,-2.0993 -0.85758,-4.27673 15.18448,-7.1672 12.10502,-2.18109 11.96436,-2.03509 15.93146,-16.53598 6.13337,-22.41918 6.02363,-21.36664 3.55406,-34.0889 -1.21137,-6.24046 -2.15456,-12.02129 -2.09599,-12.84629 0.16755,-2.35985 4.86801,21.14801 4.89885,24.5 0.0152,1.65 -1.07122,6.825 -2.41423,11.5 -1.343,4.675 -3.42638,12.2458 -4.62974,16.82399 -2.512,9.55697 -2.42264,9.48869 -15.42889,11.78837 -12.07935,2.1358 -15.34721,3.35245 -12.8053,4.76755 1.1066,0.61605 1.81549,1.68259 1.57531,2.37009 -0.53551,1.53291 1.95359,1.59327 7.07376,0.17153 4.35007,-1.20791 5.53966,-0.69093 3.64985,1.58616 -1.81535,2.18736 2.09206,0.65172 8.72239,-3.42797 2.75285,-1.69384 5.30875,-3.07972 5.67977,-3.07972 2.36421,0 5.49444,-3.33661 4.63565,-4.94128 -0.66275,-1.23834 0.3846,-6.01642 3.64917,-16.64778 3.64568,-11.87249 4.5893,-16.43924 4.63071,-22.41094 0.0466,-6.71252 0.14324,-7.08001 0.92076,-3.5 1.07787,4.96289 0.63398,7.52739 -4.31013,24.90107 -2.68442,9.43311 -3.76477,14.91979 -3.36128,17.07059 0.59253,3.15847 0.5526,3.19279 -11.45832,9.84893 -12.12001,6.71659 -15.10234,7.77889 -15.10234,5.37941 z m 41.65942,-31.2 c 1.0298,-8.77745 2.32949,-13.91756 1.6872,-6.67269 -0.30852,3.48002 -0.94634,7.53002 -1.41738,9 -0.59561,1.85873 -0.67778,1.14996 -0.26982,-2.32731 z m 2.71054,-23.5 c 0,-5.775 0.16528,-8.1375 0.36728,-5.25 0.202,2.8875 0.202,7.6125 0,10.5 -0.202,2.8875 -0.36728,0.525 -0.36728,-5.25 z m 4.82832,-1 c -0.12116,-5.225 -0.43342,-11.3 -0.6939,-13.5 l -0.47362,-4 1.01799,3.98581 c 0.55989,2.1922 0.87215,8.2672 0.69391,13.5 l -0.32408,9.51419 z m -18.66971,-14 c -1.06249,-4.675 -1.95358,-9.4 -1.98019,-10.5 -0.0743,-3.07277 -4.51149,-3.37676 -4.66438,-0.31955 -0.0847,1.69321 -0.23946,1.84719 -0.57319,0.57023 -0.25146,-0.96212 -1.66176,-2.02073 -3.13401,-2.35246 C 109.70763,112.13711 95.996054,104.14202 93.648117,94.863173 91.796796,87.546913 89.67611,73.652513 89.656977,68.713861 89.626497,60.846369 88.12715,57.852714 80.517972,50.46657 l -7.179457,-6.969018 -9.099495,2.792517 c -21.06313,6.463998 -23.76126,2.217925 -4.5995,-7.238268 l 12.5,-6.168662 2.297629,-5.976981 C 85.249157,-1.219843 127.31729,3.916325 136.24172,34.45198 c 1.85927,6.361655 0.50453,5.564681 14.9241,8.77964 17.00691,3.791828 21.6186,5.511651 42.9737,16.026052 18.91708,9.314018 36.73073,16.773331 49.93684,20.910621 7.53905,2.36188 9.1156,4.01144 5.24158,5.48433 -4.0595,1.54342 -3.94543,2.84693 0.31209,3.56624 5.75256,0.97189 3.50007,8.5016 -2.54323,8.5016 -2.10229,0 -26.09828,7.935397 -42.60609,14.089707 -18.08601,6.74268 -30.36361,9.91029 -38.41214,9.91029 -4.73564,0 -5.63069,0.3104 -6.48796,2.25 -0.86941,1.96707 -0.934,1.85448 -0.5137,-0.89538 0.39009,-2.55213 0.094,-3.24651 -1.56977,-3.6816 -3.62604,-0.94823 -4.82,0.13645 -3.6968,3.35847 0.5518,1.58288 0.79355,3.68584 0.53722,4.67324 -0.30882,1.18965 -0.50517,0.89167 -0.58204,-0.8833 -0.15753,-3.63759 -2.19905,-5.41919 -7.10956,-6.20441 -5.75211,-0.9198 -5.90582,-0.61432 -3.81856,7.58935 1.02064,4.0115 1.72449,7.96863 1.56411,8.79363 -0.16039,0.825 -1.16092,-2.325 -2.22342,-7 z m 46.97143,-15.80688 c 4.95,-1.69881 14.175,-4.95223 20.5,-7.22982 6.325,-2.27758 16.1125,-5.71593 21.75,-7.640767 12.79346,-4.36813 12.75667,-4.63389 -1,-7.22329 -14.04,-2.64274 -14.40133,-2.63739 -26.93629,0.39947 -32.76315,7.937527 -74.73845,-3.74957 -84.88258,-23.633695 l -1.96928,-3.860115 -5.44692,3.616555 c -6.14698,4.081363 -13.392223,5.555205 -16.131801,3.281553 -1.905322,-1.581278 -1.528267,3.532832 1.261967,17.116452 2.803719,13.649267 7.479794,16.514167 43.354904,26.562377 13.1378,3.67975 36.65388,3.02001 49.5,-1.38872 z m -60.74932,0.22423 c -0.32046,-0.32046 -4.07524,-1.66024 -8.34395,-2.97728 -4.26871,-1.31704 -7.29132,-1.92466 -6.71691,-1.35025 0.5744,0.5744 3.69168,1.88998 6.92727,2.9235 5.9672,1.90605 9.19234,2.46278 8.13359,1.40403 z m -27.50113,-12.30183 c -2.337252,-2.136457 -4.249552,-4.461457 -4.249552,-5.166657 0,-0.70521 -0.261459,-1.02073 -0.58102,-0.70117 -0.917015,0.91701 1.514801,5.037067 4.425222,7.497337 4.54527,3.84227 4.88728,2.46738 0.40535,-1.62951 z m 149.75045,-8.115517 c 2.71704,-2.71704 2.65962,-2.79023 -2.75,-3.50559 -15.08873,-1.99533 -22.27979,-5.40337 -8.47627,-4.01713 10.53662,1.05815 13.30718,-2.35894 4.00477,-4.93932 -3.45318,-0.95786 -8.3035,-2.54985 -10.7785,-3.53775 -2.475,-0.9879 -7.2,-2.80517 -10.5,-4.038378 -3.3,-1.23321 -13.65,-5.964913 -23,-10.514895 -24.40123,-11.874351 -35.58913,-15.934789 -54,-19.598287 -2.75,-0.547211 -5.97085,-1.620097 -7.15744,-2.384193 -1.8724,-1.205716 -2.23615,-1.18413 -2.75324,0.163381 -0.85735,2.234222 0.16407,3.372162 3.02688,3.372162 1.37399,0 4.38493,0.41377 6.69098,0.91949 2.30605,0.505719 6.89282,1.447946 10.19282,2.093838 10.40661,2.036831 16.83323,4.568704 37.21676,14.662157 10.91223,5.403483 25.39241,12.074515 32.17819,14.824515 l 12.33778,5 -8.86636,0.63038 c -4.8765,0.3467 -14.26637,2.03067 -20.86637,3.74214 -14.99782,3.88915 -15.5,3.89937 -15.5,0.31554 0,-5.17045 -4.31868,-7.18794 -14.54984,-6.79702 -7.81046,0.29844 -8.75988,0.14057 -9.19652,-1.52912 -0.6011,-2.2986 -3.82931,-2.44257 -5.06972,-0.22609 -1.18572,2.11878 -6.4228,-0.66994 -8.07727,-4.3011 -1.07491,-2.359179 -4.46931,-3.174984 -5.59978,-1.345845 -1.45064,2.347175 -5.50687,-2.122895 -5.50687,-6.068711 0,-2.903071 -0.52311,-4.129766 -2.12717,-4.988235 -2.55845,-1.369241 -3.90599,0.110338 -3.12277,3.428759 0.40621,1.72109 -0.22651,1.406215 -3.23662,-1.610698 -3.71543,-3.723841 -8.58505,-5.061187 -10.01344,-2.75 -0.89352,1.445744 -2.19846,1.228198 -2.85222,-0.475496 -0.87517,-2.280631 1.97441,-8.08003 5.89812,-12.003736 4.61796,-4.617961 2.15941,-6.225238 -2.82632,-1.847708 -5.52316,4.849396 -16.85535,11.854219 -23.96958,14.816426 -5.996538,2.496825 -6.750002,3.115011 -6.750002,5.538088 0,6.135479 6.757742,6.296744 16.558322,0.395143 3.12619,-1.882494 5.81151,-3.422717 5.96737,-3.422717 0.15587,0 1.64599,2.414388 3.31138,5.365306 10.83803,19.203934 54.29594,30.196624 84.904,21.476474 l 9.24107,-2.63275 13.21061,2.43758 c 7.26584,1.34067 14.35736,3.04591 15.75893,3.78941 3.60171,1.91062 4.77421,1.83809 7.04832,-0.43602 z M 188.91659,73.051385 c 0.7276,-3.806207 -0.86415,-7.557091 -3.02998,-7.13999 -1.18982,0.229138 -1.77899,1.332991 -1.84709,3.460678 -0.055,1.71832 -0.40774,3.92618 -0.78387,4.90636 -0.39261,1.02311 -0.16001,2.10589 0.54612,2.5423 1.91132,1.18127 4.53857,-0.75487 5.11482,-3.769348 z M 171.2267,72.227748 c 2.92318,-4.461332 -0.59766,-9.98507 -4.72648,-7.41523 -1.07276,0.6677 -1.11135,1.249447 -0.18237,2.749102 0.8308,1.341157 0.86537,2.215145 0.11722,2.963295 -1.38629,1.386293 -0.28148,4.195548 1.65001,4.195548 0.82958,0 2.24331,-1.121722 3.14162,-2.492715 z m -14.6206,-8.748656 c 1.80792,-3.232113 0.60702,-6.068138 -2.78355,-6.573572 -1.73943,-0.259299 -2.09804,0.182406 -2.02971,2.5 0.0456,1.548219 -0.258,3.866973 -0.67477,5.152788 -1.11913,3.452772 3.4563,2.553017 5.48803,-1.079216 z m -59.466582,-1.68276 c 13.675172,-6.199214 17.820382,-8.519028 23.466802,-13.132908 3.55673,-2.906332 7.79809,-5.556519 9.42523,-5.889304 1.62714,-0.332786 3.16191,-1.215487 3.4106,-1.961559 0.34716,-1.041454 -0.33222,-1.207666 -2.92523,-0.715676 -9.31321,1.767061 -16.42809,1.803835 -20.8774,0.107909 -6.33077,-2.41307 -11.514513,-2.899612 -17.413097,-1.63438 -2.797798,0.600121 -6.883854,1.458046 -9.080126,1.9065 -6.038035,1.2329 -5.622629,3.332896 1.815602,9.178375 6.261957,4.921081 7.635613,7.053717 7.663964,11.898507 0.0075,1.283334 0.351155,2.168894 0.763655,1.967913 0.4125,-0.200981 2.1,-0.977401 3.75,-1.725377 z M 90.077337,56.419017 C 89.742245,55.545781 86.919152,52.927143 83.803798,50.59982 l -5.66428,-4.231495 6,5.947103 c 6.305057,6.249471 6.925923,6.678548 5.937819,4.103589 z M 64.5,45.204723 c 4.54124,-1.434577 9.012744,-2.46274 9.936675,-2.284807 0.923932,0.177933 2.440107,-0.436717 3.369277,-1.365887 0.929171,-0.929171 3.859338,-1.9801 6.511484,-2.335398 2.652145,-0.355298 6.126732,-1.062735 7.721305,-1.572082 4.239733,-1.354279 11.299879,-1.130878 14.400439,0.455666 7.21893,3.693897 29.20034,2.411821 29.20034,-1.703124 0,-25.301484 -52.75615,-36.850037 -58.660618,-12.841067 -1.214931,4.940198 -4.260002,11.162439 -5.462732,11.162439 -0.65693,0 -6.29792,2.500452 -12.53554,5.556559 -17.503,8.575567 -14.504,11.253082 5.51937,4.927701 z M 76.639518,29.897946 c 0,-7.275992 24.236642,-11.610355 28.313252,-5.063406 2.42622,3.89645 0.37308,4.76646 -7.449857,3.156857 l -7.287494,-1.499433 -5.664818,3.114249 c -6.966731,3.829981 -7.911083,3.864805 -7.911083,0.291733 z m 7.838385,-1.281547 c 5.273626,-2.97625 5.726467,-3.058602 10.997639,-2 7.300618,1.466173 9.163978,1.39282 9.163978,-0.360752 0,-6.557067 -25.800482,-3.316488 -26.819553,3.368575 -0.419446,2.751548 0.149223,2.665468 6.657936,-1.007823 z"
               style="fill:#ffffff" />
            <path
               inkscape:export-ydpi="151"
               inkscape:export-xdpi="151"
               inkscape:export-filename="/home/vicent/logo.png"
               inkscape:connector-curvature="0"
               id="path31196"
               d="m 144.63952,199.4363 c 0,-2.00596 -0.0687,-2.02044 -3.46244,-0.73012 -2.43856,0.92714 -2.52466,0.8587 -1.44877,-1.15163 0.98749,-1.84514 0.9102,-2.04768 -0.56536,-1.48146 -7.97387,3.05986 -8.04348,0.38536 -0.0903,-3.47056 3.77372,-1.82961 3.14467,-0.83738 -1.09648,1.72952 -1.53284,0.92774 -1.29907,1.03302 1.41338,0.6365 1.7875,-0.2613 3.25,-0.0865 3.25,0.38841 0,4.56187 11.51933,-2.485 12.29687,-7.52253 l 0.40347,-2.61397 0.14983,2.53416 c 0.10961,1.85387 -1.32664,3.99229 -5.35017,7.96584 -3.75264,3.70603 -5.5,4.88655 -5.5,3.71584 z m -27.22718,-2.88867 c 2.10896,-2.10895 1.35364,-3.00853 -2.02282,-2.40917 -2.46872,0.43823 -2.76921,0.35403 -1.25,-0.35026 2.80821,-1.30185 6.5,-1.27956 6.5,0.0393 0,0.60884 0.69837,0.839 1.55194,0.51145 0.85356,-0.32754 1.30439,-0.195 1.00183,0.29455 -0.30255,0.48954 -2.00315,1.39662 -3.77911,2.01572 -2.55117,0.88934 -2.9714,0.86803 -2.00184,-0.10154 z m -10.50281,-2.07717 c 0.24018,-0.6875 -0.46871,-1.75404 -1.57531,-2.37009 -1.8627,-1.03697 -1.73554,-1.21133 1.71365,-2.34966 2.04911,-0.67627 3.9955,-0.95973 4.32532,-0.62991 0.32981,0.32981 -0.18066,0.59966 -1.13439,0.59966 -1.91448,0 -1.33899,3.83511 0.7855,5.23469 0.61337,0.40408 -0.15978,0.74158 -1.71811,0.75 -1.83741,0.01 -2.67984,-0.42407 -2.39666,-1.23469 z m 53.10816,-51.75 c 0,-6.325 0.16237,-8.9125 0.36082,-5.75 0.19845,3.1625 0.19845,8.3375 0,11.5 -0.19845,3.1625 -0.36082,0.575 -0.36082,-5.75 z m -39.76108,-29.98668 c -3.23559,-1.03352 -6.35287,-2.3491 -6.92727,-2.9235 -0.57441,-0.57441 2.4482,0.0332 6.71691,1.35025 4.26871,1.31704 8.02349,2.65682 8.34395,2.97728 1.05875,1.05875 -2.16639,0.50202 -8.13359,-1.40403 z m -19.77289,-9.26829 c -2.910421,-2.46027 -5.342237,-6.580327 -4.425222,-7.497337 0.319561,-0.31956 0.58102,-0.004 0.58102,0.70117 0,0.7052 1.9123,3.0302 4.249552,5.166657 4.48193,4.09689 4.13992,5.47178 -0.40535,1.62951 z m 143.1558,-9.328337 c -1.97282,-1.09468 -2.11711,-1.39032 -0.68426,-1.40195 0.99866,-0.008 2.71948,0.46893 3.82406,1.06008 1.67687,0.89743 2.09785,0.7324 2.55089,-1 0.45654,-1.74582 3.30931,-3.10338 3.30931,-1.57482 0,3.25964 -5.29149,4.97449 -9,2.91669 z m -78.59143,-1.40429 c -19.2793,-2.71072 -38.84208,-13.35178 -45.23633,-24.60606 -2.47574,-4.357452 -2.79579,-5.375627 -1.25,-3.976713 2.0739,1.876858 2.07776,1.872144 2.07776,-2.539449 0,-2.509274 0.86453,-6.032821 2,-8.151363 2.52969,-4.719862 2.50565,-5.070564 -0.25,-3.646107 -1.2375,0.639691 -0.45,-0.450744 1.75,-2.42319 6.21508,-5.572232 9.63133,-4.73418 3.93246,0.964687 -3.82479,3.824795 -6.65072,9.633435 -5.78468,11.890299 0.65376,1.703694 1.9587,1.92124 2.85222,0.475496 1.42839,-2.311187 6.29801,-0.973841 10.01344,2.75 3.01011,3.016913 3.64283,3.331788 3.23662,1.610698 -0.78322,-3.318421 0.56432,-4.798 3.12277,-3.428759 1.60406,0.858469 2.12717,2.085164 2.12717,4.988235 0,3.945816 4.05623,8.415886 5.50687,6.068711 1.13047,-1.829139 4.52487,-1.013334 5.59978,1.345845 1.65447,3.63116 6.89155,6.41988 8.07727,4.3011 1.24041,-2.21648 4.46862,-2.07251 5.06972,0.22609 0.43664,1.66969 1.38606,1.82756 9.19652,1.52912 10.23116,-0.39092 14.54984,1.62657 14.54984,6.79702 0,3.58383 0.50218,3.57361 15.5,-0.31554 6.6,-1.71147 15.98987,-3.39544 20.86637,-3.74214 l 8.86636,-0.63038 -12.33778,-5 c -6.78578,-2.75 -21.26596,-9.421032 -32.17819,-14.824515 -20.38353,-10.093453 -26.81015,-12.625326 -37.21676,-14.662157 -3.3,-0.645892 -7.88677,-1.588119 -10.19282,-2.093838 -2.30605,-0.50572 -5.31699,-0.91949 -6.69098,-0.91949 -2.86281,0 -3.88423,-1.13794 -3.02688,-3.372162 0.51709,-1.347511 0.88084,-1.369097 2.75324,-0.163381 1.18659,0.764096 4.40744,1.836982 7.15744,2.384193 16.5464,3.292496 35.34401,9.818005 47.57946,16.517003 7.51879,4.116595 26.2498,12.625976 33.42054,15.182747 2.75,0.98052 7.925,2.82164 11.5,4.09137 3.575,1.26973 5.7125,2.32021 4.75,2.33441 -1.0522,0.0155 -1.75,0.79407 -1.75,1.9525 0,1.05967 0.7875,2.14078 1.75,2.40246 0.9625,0.26168 -0.8375,0.23272 -4,-0.0644 -6.89734,-0.64792 -7.88359,1.09714 -1.5,2.6541 l 4.25,1.03657 -3.96694,-0.45006 c -2.18182,-0.24753 -5.2011,-1.36251 -6.70951,-2.47772 -4.47426,-3.30797 -16.36502,-2.62914 -13.59907,0.77634 1.07415,1.32252 1.01633,1.47347 -0.3662,0.95616 -0.90294,-0.33786 -5.62794,0.50638 -10.5,1.8761 -9.88616,2.77937 -29.84493,3.93749 -40.94971,2.37613 z m 21.58086,-6.49967 c 1.47261,-1.77438 0.65278,-4.51273 -1.35106,-4.51273 -1.45745,0 -2.63837,2.05079 -2.63837,4.58179 0,1.86023 2.42308,1.81829 3.98943,-0.0691 z m -20.17607,-4.27092 c 0.37452,-3.87454 -1.03576,-4.24388 -2.65284,-0.69476 -1.60875,3.53081 -1.45347,4.65509 0.58948,4.26808 1.15255,-0.21833 1.85698,-1.43827 2.06336,-3.57332 z m -14.85232,-1.43037 c 2.40255,-2.57883 2.73745,-6.81144 0.53896,-6.81144 -0.825,0 -1.5,0.86786 -1.5,1.92857 0,1.06072 -0.675,2.60357 -1.5,3.42857 -1.69517,1.69517 -1.98332,3.64286 -0.53896,3.64286 0.52858,0 1.87858,-0.98485 3,-2.18856 z m -10.37414,-11.30372 c 1.6647,-2.540651 1.34182,-5.50772 -0.59935,-5.50772 -0.59137,0 -0.943,0.783421 -0.78139,1.740935 0.1734,1.027333 -0.62843,2.14927 -1.95616,2.737128 -1.2375,0.547907 -2.25,1.564486 -2.25,2.259065 0,2.213045 3.89256,1.356479 5.5869,-1.229408 z m 42.57535,7.59255 c -0.70613,-0.43641 -0.93873,-1.51919 -0.54612,-2.5423 0.37613,-0.98018 0.72887,-3.18804 0.78387,-4.90636 0.12683,-3.962474 3.1655,-4.924623 4.49653,-1.423758 1.84998,4.865806 -1.39061,10.938928 -4.73428,8.872418 z m -17.82642,-3.667487 c -0.33077,-0.86197 -0.12389,-2.044719 0.45972,-2.628331 0.74815,-0.74815 0.71358,-1.622138 -0.11722,-2.963295 -0.92898,-1.499655 -0.89039,-2.081402 0.18237,-2.749102 2.17181,-1.351771 5.10945,-0.05915 5.76048,2.534722 1.14555,4.564259 -4.69245,9.957033 -6.28535,5.806006 z m 4.58123,-2.682783 c 0.51339,-1.354811 0.45185,-2.747327 -0.15467,-3.5 -1.67674,-2.080775 -2.36239,-1.427743 -2.36239,2.25 0,3.974482 1.24951,4.595 2.51706,1.25 z m -19.43851,-5.912155 c 0.41677,-1.285815 0.72041,-3.604569 0.67477,-5.152788 -0.0683,-2.317594 0.29028,-2.759299 2.02971,-2.5 5.21988,0.778131 4.29167,8.878828 -1.10605,9.652788 -2.06543,0.296155 -2.26268,0.04935 -1.59843,-2 z m -66.978552,-12.24288 -6,-5.947103 5.66428,4.231495 c 4.731303,3.534516 7.765832,6.993994 6.609259,7.534805 -0.150447,0.07035 -2.973539,-2.54829 -6.273539,-5.819197 z M 74.683086,30.118823 c 1.076038,-2.510294 1.98806,-5.314363 2.026717,-6.231265 0.05542,-1.314526 0.238537,-1.244121 0.865847,0.332905 0.437559,1.1 0.405931,2.15 -0.07028,2.333333 -0.476221,0.183334 -0.865852,1.537588 -0.865852,3.009454 0,1.573248 -0.806277,3.179648 -1.956432,3.897931 -1.941909,1.212743 -1.941909,1.187932 0,-3.342358 z"
               style="fill:#ffffff" />
            <path
               inkscape:export-ydpi="151"
               inkscape:export-xdpi="151"
               inkscape:export-filename="/home/vicent/logo.png"
               inkscape:connector-curvature="0"
               id="path31198"
               d="m 182.63952,86.302253 c 0,-2.531 1.18092,-4.58179 2.63837,-4.58179 2.00384,0 2.82367,2.73835 1.35106,4.51273 -1.56635,1.88735 -3.98943,1.92929 -3.98943,0.0691 z m -20,-1.46141 c 0,-1.78565 2.28329,-6.12038 3.22387,-6.12038 1.75101,0 0.35194,6.46926 -1.47387,6.81513 -0.9625,0.18234 -1.75,-0.1303 -1.75,-0.69475 z m -15,-3.19181 c 0,-0.58928 0.675,-1.74643 1.5,-2.57143 0.825,-0.825 1.5,-2.36785 1.5,-3.42857 0,-1.06071 0.675,-1.92857 1.5,-1.92857 2.19849,0 1.86359,4.23261 -0.53896,6.81144 -2.19075,2.3515 -3.96104,2.85077 -3.96104,1.11713 z m 20.4,-12.42857 c 0,-3.677743 0.68565,-4.330775 2.36239,-2.25 1.08256,1.343426 -0.0901,5.75 -1.53017,5.75 -0.45772,0 -0.83222,-1.575 -0.83222,-3.5 z m -32.4,1.237128 c 0,-0.694579 1.0125,-1.711158 2.25,-2.259065 1.32773,-0.587858 2.12956,-1.709795 1.95616,-2.737128 -0.35997,-2.132777 1.633,-2.323643 2.43518,-0.233215 0.81998,2.13685 -2.30918,6.49228 -4.66439,6.49228 -1.08732,0 -1.97695,-0.568292 -1.97695,-1.262872 z m -26,-31.737128 c -1.375,-0.440352 -1.8475,-0.845496 -1.05,-0.90032 1.09933,-0.07557 1.16969,-0.379991 0.29093,-1.258747 -0.71834,-0.718338 -0.95314,-2.904747 -0.61751,-5.75 0.4026,-3.412926 0.26773,-4.206042 -0.52562,-3.090933 -1.10794,1.557296 -1.1066,1.560762 -1.50481,-3.90536 -0.11242,-1.5432 -1.40919,-1.929226 -9.592992,-2.85567 -4.86444,-0.550677 -5.153331,-0.702343 -2.5,-1.312483 l 3,-0.689857 -3.069665,-0.118315 c -1.916221,-0.07386 -3.879532,-1.049743 -5.22497,-2.597133 l -2.155305,-2.478819 7.01055,-2.12939 c 17.132982,-5.203984 40.939392,8.78148 40.939392,24.05052 0,3.139614 -17.89224,5.31281 -25,3.036507 z"
               style="fill:#ffffff" />
            <path
               inkscape:export-ydpi="151"
               inkscape:export-xdpi="151"
               inkscape:export-filename="/home/vicent/logo.png"
               inkscape:connector-curvature="0"
               id="path31200"
               d="m 146.13952,195.99186 c -1.1,-0.21367 -2.675,-0.65813 -3.5,-0.98767 -0.825,-0.32954 -2.175,-0.52947 -3,-0.44427 -1.08677,0.11222 -0.98927,-0.18869 0.35391,-1.09228 12.35557,-8.31193 12.11169,-8.05888 12.80155,-13.28328 0.3605,-2.73015 1.32951,-8.7889 2.15334,-13.4639 2.76235,-15.67539 3.03846,-24.09592 1.16472,-35.51952 -1.81276,-11.05175 -1.563,-12.99853 1.30029,-10.13524 2.48449,2.48448 2.3974,36.51788 -0.13217,51.65476 -0.96508,5.775 -2.00875,12.15204 -2.31927,14.17121 -0.67746,4.40528 -5.7985,9.68758 -8.82237,9.10019 z m -36.25,-3.75601 c 0,-1.78486 0.63178,-2.67111 2.125,-2.9809 1.16875,-0.24248 5.83619,-1.20174 10.37208,-2.1317 9.96273,-2.04258 9.61117,-1.65369 12.6294,-13.97072 1.33859,-5.46264 3.43069,-13.51762 4.6491,-17.89996 l 2.21529,-7.96788 -2.08051,-10.03212 c -3.23425,-15.59536 -3.68737,-19.87445 -2.04665,-19.32754 0.75849,0.25283 1.67089,1.99773 2.02758,3.87756 0.35668,1.87983 1.63641,7.69287 2.84384,12.91787 2.76885,11.98184 2.35219,16.22657 -3.3865,34.5 -3.03804,9.67388 -4.12004,14.51821 -3.50152,15.677 1.44618,2.7094 -8.99537,8.08035 -16.09711,8.28006 -3.025,0.0851 -6.45625,0.4795 -7.625,0.87652 -1.79839,0.6109 -2.125,0.33145 -2.125,-1.81819 z M 246.61816,93.762963 c -1.708,-0.91591 -22.49738,-5.04668 -25.47864,-5.06251 -3.2998,-0.0175 -5.3474,-1.75194 -3.5,-2.96468 2.69391,-1.76843 9.87153,-1.17017 12.9097,1.07605 1.88304,1.39219 5.54692,2.43837 10.95951,3.12934 5.51416,0.70395 8.13079,1.4601 8.13079,2.34963 0,1.80647 -1.25636,2.41864 -3.02136,1.47217 z m -4.22864,-7.80038 c -1.90306,-0.42277 -2.36237,-2.74562 -0.74105,-3.74765 1.50392,-0.92948 4.99105,0.44407 4.99105,1.96593 0,1.5669 -1.80699,2.32443 -4.25,1.78172 z M 95.594998,68.637276 c -1.17461,-2.194779 1.013086,-5.916813 3.477719,-5.916813 1.962083,0 14.902383,-6.788776 19.309813,-10.130368 4.86608,-3.689322 6.0866,-3.374602 3.83072,0.987778 -0.86555,1.673798 -1.57373,4.865617 -1.57373,7.09293 0,4.027402 -0.73304,4.916625 -2.55286,3.096801 -0.60381,-0.603812 -2.60023,0.06617 -5.45,1.828975 -8.6795,5.368951 -15.175324,6.527983 -17.041662,3.040697 z M 48.63952,47.495504 c 0,-1.833468 25.774644,-14.775041 29.426209,-14.775041 0.902152,0 3.94299,-1.166873 6.757418,-2.593052 4.973428,-2.520226 5.343264,-2.559988 13.168585,-1.415775 7.428548,1.086198 8.161118,1.035373 9.469078,-0.656948 1.26629,-1.638412 1.35587,-1.34412 0.8391,2.756708 -0.37242,2.955407 -0.14779,5.052318 0.63054,5.886044 0.97703,1.046563 0.72929,1.153036 -1.29093,0.554799 -8.749215,-2.590857 -15.989936,-1.418395 -41.5,6.719933 -14.79766,4.720812 -17.5,5.264883 -17.5,3.523332 z M 77.639518,23.88713 c 0,-5.089002 9.465477,-10.853475 11.767927,-7.166666 0.801535,1.283462 2.410359,2.036672 4.490547,2.10236 l 3.241526,0.102362 -3,0.748156 c -1.65,0.411485 -5.79894,1.940422 -9.219868,3.397638 -7.3985,3.151546 -7.280132,3.138276 -7.280132,0.81615 z"
               style="fill:#ffffff" />
          </g>
          <path
             style="fill:#ffffff"
             d="m 101.41064,228.5 c 0.4547,-1.81165 0.22546,-2.5 -0.83257,-2.5 -5.643699,0 -2.429105,-3.79043 8.53634,-10.06547 8.16004,-4.66963 8.89373,-5.34407 8.98527,-8.25968 0.0548,-1.74617 0.49669,-4.29985 0.98191,-5.67485 0.61425,-1.7406 0.71632,-0.83691 0.33603,2.975 -0.67377,6.7537 -1.06936,7.23333 -10.01598,12.14352 -10.591558,5.81298 -12.25104,8.83081 -2.87821,5.23411 1.47556,-0.56622 1.55285,-0.36368 0.56536,1.48146 -1.07589,2.01033 -0.98979,2.07877 1.44877,1.15163 3.39379,-1.29032 3.46244,-1.27584 3.46244,0.73012 0,1.17547 1.69338,0.0435 5.37701,-3.59438 5.9967,-5.92221 5.50004,-4.27106 8.6093,-28.62146 0.9832,-7.7 1.83442,-12.425 1.89161,-10.5 0.0928,3.12351 -1.63521,17.89135 -3.49757,29.89086 -1.09466,7.0531 -16.29186,22.26 -15.74146,15.75151 0.17911,-2.11799 -0.28091,-2.06912 -3.36602,0.35763 -3.40668,2.67969 -4.62083,2.52251 -3.86223,-0.5 z M 79,225.7 c 0,-0.715 0.52422,-1.82422 1.164933,-2.46493 0.886577,-0.88658 0.286002,-0.92225 -2.513435,-0.14929 C 73.724447,224.17009 72,223.70086 72,221.54797 c 0,-0.7337 -0.675,-1.59301 -1.5,-1.9096 -5.470694,-2.0993 -0.857576,-4.27673 15.184482,-7.1672 12.105018,-2.18109 11.964355,-2.03509 15.931458,-16.53598 6.13337,-22.41918 6.02363,-21.36664 3.55406,-34.0889 -1.21137,-6.24046 -2.15456,-12.02129 -2.09599,-12.84629 0.16755,-2.35985 4.86801,21.14801 4.89885,24.5 0.0152,1.65 -1.07122,6.825 -2.41423,11.5 -1.343,4.675 -3.42638,12.2458 -4.62974,16.82399 -2.512002,9.55697 -2.422638,9.48869 -15.42889,11.78837 -12.079352,2.1358 -15.347211,3.35245 -12.805298,4.76755 1.106598,0.61605 1.81549,1.68259 1.575314,2.37009 -0.535518,1.53291 1.953582,1.59327 7.073755,0.17153 4.350068,-1.20791 5.539663,-0.69093 3.649849,1.58616 -1.815346,2.18736 2.092058,0.65172 8.722387,-3.42797 C 96.468862,217.38588 99.024761,216 99.395782,216 c 2.364208,0 5.494438,-3.33661 4.635648,-4.94128 -0.66275,-1.23834 0.3846,-6.01642 3.64917,-16.64778 3.64568,-11.87249 4.5893,-16.43924 4.63071,-22.41094 0.0466,-6.71252 0.14324,-7.08001 0.92076,-3.5 1.07787,4.96289 0.63398,7.52739 -4.31013,24.90107 -2.68442,9.43311 -3.76477,14.91979 -3.36128,17.07059 0.59253,3.15847 0.5526,3.19279 -11.458318,9.84893 C 81.982335,227.03718 79,228.09948 79,225.7 Z m 41.65942,-31.2 c 1.0298,-8.77745 2.32949,-13.91756 1.6872,-6.67269 -0.30852,3.48002 -0.94634,7.53002 -1.41738,9 -0.59561,1.85873 -0.67778,1.14996 -0.26982,-2.32731 z m 2.71054,-23.5 c 0,-5.775 0.16528,-8.1375 0.36728,-5.25 0.202,2.8875 0.202,7.6125 0,10.5 -0.202,2.8875 -0.36728,0.525 -0.36728,-5.25 z m 4.82832,-1 c -0.12116,-5.225 -0.43342,-11.3 -0.6939,-13.5 l -0.47362,-4 1.01799,3.98581 c 0.55989,2.1922 0.87215,8.2672 0.69391,13.5 L 128.41858,179.5 Z m -18.66971,-14 c -1.06249,-4.675 -1.95358,-9.4 -1.98019,-10.5 -0.0743,-3.07277 -4.51149,-3.37676 -4.66438,-0.31955 -0.0847,1.69321 -0.23946,1.84719 -0.57319,0.57023 -0.25146,-0.96212 -1.66176,-2.02073 -3.134003,-2.35246 C 77.068114,138.41665 63.356536,130.42156 61.008599,121.14271 59.157278,113.82645 57.036592,99.93205 57.017459,94.993398 56.98698,87.125906 55.487632,84.132251 47.878454,76.746107 l -7.179457,-6.969018 -9.099498,2.792517 C 10.536373,79.033604 7.8382408,74.787531 27,65.331338 l 12.5,-6.168662 2.297631,-5.976981 c 10.812008,-28.126002 52.880143,-22.989834 61.804569,7.545822 1.85927,6.361655 0.50453,5.564681 14.9241,8.77964 17.00691,3.791828 21.6186,5.511651 42.9737,16.026052 18.91708,9.314018 36.73073,16.773331 49.93684,20.910621 7.53905,2.36188 9.1156,4.01144 5.24158,5.48433 -4.0595,1.54342 -3.94543,2.84693 0.31209,3.56624 5.75256,0.97189 3.50007,8.5016 -2.54323,8.5016 -2.10229,0 -26.09828,7.9354 -42.60609,14.08971 C 153.75518,144.83239 141.47758,148 133.42905,148 c -4.73564,0 -5.63069,0.3104 -6.48796,2.25 -0.86941,1.96707 -0.934,1.85448 -0.5137,-0.89538 0.39009,-2.55213 0.094,-3.24651 -1.56977,-3.6816 -3.62604,-0.94823 -4.82,0.13645 -3.6968,3.35847 0.5518,1.58288 0.79355,3.68584 0.53722,4.67324 -0.30882,1.18965 -0.50517,0.89167 -0.58204,-0.8833 -0.15753,-3.63759 -2.19905,-5.41919 -7.10956,-6.20441 -5.75211,-0.9198 -5.90582,-0.61432 -3.81856,7.58935 1.02064,4.0115 1.72449,7.96863 1.56411,8.79363 -0.16039,0.825 -1.16092,-2.325 -2.22342,-7 z M 156.5,140.19312 c 4.95,-1.69881 14.175,-4.95223 20.5,-7.22982 6.325,-2.27758 16.1125,-5.71593 21.75,-7.64077 12.79346,-4.36813 12.75667,-4.63389 -1,-7.22329 -14.04,-2.64274 -14.40133,-2.63739 -26.93629,0.39947 -32.76315,7.93753 -74.73845,-3.74957 -84.882574,-23.633695 L 83.961852,91.0049 78.514927,94.621455 c -6.146977,4.081363 -13.392218,5.555205 -16.131796,3.281553 -1.905322,-1.581278 -1.528267,3.532832 1.261967,17.116452 2.803719,13.64927 7.479789,16.51417 43.354902,26.56238 13.1378,3.67975 36.65388,3.02001 49.5,-1.38872 z m -60.74932,0.22423 c -0.320459,-0.32046 -4.075234,-1.66024 -8.343944,-2.97728 -4.268711,-1.31704 -7.291324,-1.92466 -6.716919,-1.35025 0.574405,0.5744 3.69168,1.88998 6.927278,2.9235 5.967193,1.90605 9.192335,2.46278 8.133585,1.40403 z M 68.249556,128.11552 C 65.9123,125.97906 64,123.65406 64,122.94886 c 0,-0.70521 -0.261459,-1.02073 -0.58102,-0.70117 -0.917015,0.91701 1.514801,5.03707 4.425223,7.49734 4.545266,3.84227 4.88728,2.46738 0.405353,-1.62951 z M 218,120 c 2.71704,-2.71704 2.65962,-2.79023 -2.75,-3.50559 -15.08873,-1.99533 -22.27979,-5.40337 -8.47627,-4.01713 10.53662,1.05815 13.30718,-2.35894 4.00477,-4.93932 -3.45318,-0.95786 -8.3035,-2.54985 -10.7785,-3.53775 -2.475,-0.9879 -7.2,-2.80517 -10.5,-4.038378 -3.3,-1.23321 -13.65,-5.964913 -23,-10.514895 -24.40123,-11.874351 -35.58913,-15.934789 -54,-19.598287 -2.75,-0.547211 -5.97085,-1.620097 -7.15744,-2.384193 -1.8724,-1.205716 -2.23615,-1.18413 -2.75324,0.163381 C 101.73197,69.86206 102.75339,71 105.6162,71 c 1.37399,0 4.38493,0.41377 6.69098,0.91949 2.30605,0.505719 6.89282,1.447946 10.19282,2.093838 10.40661,2.036831 16.83323,4.568704 37.21676,14.662157 C 170.62899,94.078968 185.10917,100.75 191.89495,103.5 l 12.33778,5 -8.86636,0.63038 c -4.8765,0.3467 -14.26637,2.03067 -20.86637,3.74214 -14.99782,3.88915 -15.5,3.89937 -15.5,0.31554 0,-5.17045 -4.31868,-7.18794 -14.54984,-6.79702 -7.81046,0.29844 -8.75988,0.14057 -9.19652,-1.52912 -0.6011,-2.2986 -3.82931,-2.44257 -5.06972,-0.22609 -1.18572,2.11878 -6.4228,-0.66994 -8.07727,-4.3011 -1.07491,-2.359179 -4.46931,-3.174984 -5.59978,-1.345845 C 115.05623,101.33606 111,96.86599 111,92.920174 c 0,-2.903071 -0.52311,-4.129766 -2.12717,-4.988235 -2.55845,-1.369241 -3.90599,0.110338 -3.12277,3.428759 0.40621,1.72109 -0.22651,1.406215 -3.23662,-1.610698 C 98.798008,86.026159 93.928392,84.688813 92.5,87 91.606481,88.445744 90.301545,88.228198 89.647777,86.524504 88.772616,84.243873 91.622193,78.444474 95.545899,74.520768 100.16386,69.902807 97.705314,68.29553 92.719583,72.67306 87.196426,77.522456 75.864227,84.527279 68.75,87.489486 62.753464,89.986311 62,90.604497 62,93.027574 c 0,6.135479 6.757745,6.296744 16.558323,0.395143 C 81.684515,91.540223 84.369832,90 84.525696,90 c 0.155863,0 1.645983,2.414388 3.311378,5.365306 10.83803,19.203934 54.295936,30.196624 84.903996,21.476474 l 9.24107,-2.63275 13.21061,2.43758 c 7.26584,1.34067 14.35736,3.04591 15.75893,3.78941 3.60171,1.91062 4.77421,1.83809 7.04832,-0.43602 z M 156.27707,99.330922 c 0.7276,-3.806207 -0.86415,-7.557091 -3.02998,-7.13999 -1.18982,0.229138 -1.77899,1.332991 -1.84709,3.460678 -0.055,1.71832 -0.40774,3.92618 -0.78387,4.90636 -0.39261,1.02311 -0.16001,2.10589 0.54612,2.5423 1.91132,1.18127 4.53857,-0.75487 5.11482,-3.769348 z m -17.68989,-0.823637 c 2.92318,-4.461332 -0.59766,-9.98507 -4.72648,-7.41523 -1.07276,0.6677 -1.11135,1.249447 -0.18237,2.749102 0.8308,1.341157 0.86537,2.215145 0.11722,2.963295 C 132.40926,98.190745 133.51407,101 135.44556,101 c 0.82958,0 2.24331,-1.121722 3.14162,-2.492715 z m -14.6206,-8.748656 c 1.80792,-3.232113 0.60702,-6.068138 -2.78355,-6.573572 -1.73943,-0.259299 -2.09804,0.182406 -2.02971,2.5 0.0456,1.548219 -0.258,3.866973 -0.67477,5.152788 -1.11913,3.452772 3.4563,2.553017 5.48803,-1.079216 z M 64.5,88.075869 c 13.675172,-6.199214 17.820378,-8.519028 23.466797,-13.132908 3.556739,-2.906332 7.798094,-5.556519 9.425235,-5.889304 1.627141,-0.332786 3.161908,-1.215487 3.410598,-1.961559 0.34716,-1.041454 -0.33222,-1.207666 -2.925231,-0.715676 C 88.564187,68.143483 81.449316,68.180257 77,66.484331 c -6.330764,-2.41307 -11.514511,-2.899612 -17.413095,-1.63438 -2.797798,0.600121 -6.883854,1.458046 -9.080126,1.9065 -6.038035,1.2329 -5.622629,3.332896 1.815602,9.178375 6.261957,4.921081 7.635613,7.053717 7.663964,11.898507 0.0075,1.283334 0.351155,2.168894 0.763655,1.967913 0.4125,-0.200981 2.1,-0.977401 3.75,-1.725377 z M 57.437819,82.698554 C 57.102727,81.825318 54.279634,79.20668 51.16428,76.879357 L 45.5,72.647862 l 6,5.947103 c 6.305057,6.249471 6.925923,6.678548 5.937819,4.103589 z M 31.860482,71.48426 c 4.54124,-1.434577 9.012744,-2.46274 9.936675,-2.284807 0.923932,0.177933 2.440107,-0.436717 3.369277,-1.365887 0.929171,-0.929171 3.859338,-1.9801 6.511484,-2.335398 2.652145,-0.355298 6.126732,-1.062735 7.721305,-1.572082 4.239733,-1.354279 11.299874,-1.130878 14.400437,0.455666 C 81.018595,68.075649 103,66.793573 103,62.678628 103,37.377143 50.243852,25.82859 44.339384,49.837561 43.124453,54.777759 40.079382,61 38.876655,61 38.219724,61 32.578732,63.500452 26.341117,66.556559 8.8381078,75.132126 11.837109,77.809641 31.860482,71.48426 Z M 44,56.177483 c 0,-7.275992 24.23664,-11.610356 28.313252,-5.063406 2.426215,3.89645 0.373081,4.76646 -7.449857,3.156857 L 57.575901,52.771501 51.911083,55.88575 C 44.944352,59.715731 44,59.750555 44,56.177483 Z m 7.838385,-1.281547 c 5.273626,-2.97625 5.726467,-3.058602 10.997639,-2 C 70.136638,54.362109 72,54.288756 72,52.535184 c 0,-6.557067 -25.80048,-3.316488 -26.819551,3.368575 -0.419446,2.751548 0.149223,2.665468 6.657936,-1.007823 z"
             id="path31204"
             inkscape:connector-curvature="0"
             inkscape:export-filename="/home/vicent/logo.png"
             inkscape:export-xdpi="151"
             inkscape:export-ydpi="151" />
          <path
             style="fill:#ffffff"
             d="m 112,225.71584 c 0,-2.00596 -0.0687,-2.02044 -3.46244,-0.73012 -2.43856,0.92714 -2.52466,0.8587 -1.44877,-1.15163 0.98749,-1.84514 0.9102,-2.04768 -0.56536,-1.48146 -7.973863,3.05986 -8.043474,0.38536 -0.0903,-3.47056 3.77372,-1.82961 3.14467,-0.83738 -1.09648,1.72952 -1.53284,0.92774 -1.29907,1.03302 1.41338,0.6365 1.7875,-0.2613 3.25,-0.0865 3.25,0.38841 0,4.56187 11.51933,-2.485 12.29687,-7.52253 l 0.40347,-2.61397 0.14983,2.53416 c 0.10961,1.85387 -1.32664,3.99229 -5.35017,7.96584 -3.75264,3.70603 -5.5,4.88655 -5.5,3.71584 z m -27.227174,-2.88867 c 2.108955,-2.10895 1.353636,-3.00853 -2.022826,-2.40917 -2.468715,0.43823 -2.769209,0.35403 -1.25,-0.35026 2.808213,-1.30185 6.5,-1.27956 6.5,0.0393 0,0.60884 0.698372,0.839 1.551938,0.51145 0.853566,-0.32754 1.304393,-0.195 1.001838,0.29455 -0.302555,0.48954 -2.003155,1.39662 -3.779111,2.01572 -2.551177,0.88934 -2.971404,0.86803 -2.001839,-0.10154 z M 74.270016,220.75 c 0.240176,-0.6875 -0.468716,-1.75404 -1.575314,-2.37009 -1.862701,-1.03697 -1.735543,-1.21133 1.713652,-2.34966 2.049108,-0.67627 3.995499,-0.95973 4.325315,-0.62991 0.329815,0.32981 -0.18066,0.59966 -1.13439,0.59966 -1.914477,0 -1.338991,3.83511 0.785502,5.23469 0.613371,0.40408 -0.159781,0.74158 -1.718114,0.75 -1.837401,0.01 -2.679837,-0.42407 -2.396651,-1.23469 z M 127.37817,169 c 0,-6.325 0.16237,-8.9125 0.36082,-5.75 0.19845,3.1625 0.19845,8.3375 0,11.5 -0.19845,3.1625 -0.36082,0.575 -0.36082,-5.75 z M 87.617095,139.01332 c -3.235598,-1.03352 -6.352873,-2.3491 -6.927278,-2.9235 -0.574405,-0.57441 2.448208,0.0332 6.716919,1.35025 4.26871,1.31704 8.023485,2.65682 8.343944,2.97728 1.05875,1.05875 -2.166392,0.50202 -8.133585,-1.40403 z m -19.772892,-9.26829 c -2.910422,-2.46027 -5.342238,-6.58033 -4.425223,-7.49734 0.319561,-0.31956 0.58102,-0.004 0.58102,0.70117 0,0.7052 1.9123,3.0302 4.249556,5.16666 4.481927,4.09689 4.139913,5.47178 -0.405353,1.62951 z M 211,120.41669 c -1.97282,-1.09468 -2.11711,-1.39032 -0.68426,-1.40195 0.99866,-0.008 2.71948,0.46893 3.82406,1.06008 1.67687,0.89743 2.09785,0.7324 2.55089,-1 C 217.14723,117.329 220,115.97144 220,117.5 c 0,3.25964 -5.29149,4.97449 -9,2.91669 z m -78.59143,-1.40429 c -19.2793,-2.71072 -38.842077,-13.35178 -45.236331,-24.60606 -2.47574,-4.357452 -2.795783,-5.375627 -1.25,-3.976713 C 87.996143,92.306485 88,92.301771 88,87.890178 c 0,-2.509274 0.864529,-6.032821 2,-8.151363 2.529695,-4.719862 2.505649,-5.070564 -0.25,-3.646107 -1.2375,0.639691 -0.45,-0.450744 1.75,-2.42319 6.215081,-5.572232 9.63133,-4.73418 3.932462,0.964687 C 91.607667,78.459 88.781737,84.26764 89.647777,86.524504 90.301545,88.228198 91.606481,88.445744 92.5,87 c 1.428392,-2.311187 6.298008,-0.973841 10.01344,2.75 3.01011,3.016913 3.64283,3.331788 3.23662,1.610698 -0.78322,-3.318421 0.56432,-4.798 3.12277,-3.428759 1.60406,0.858469 2.12717,2.085164 2.12717,4.988235 0,3.945816 4.05623,8.415886 5.50687,6.068711 1.13047,-1.829139 4.52487,-1.013334 5.59978,1.345845 1.65447,3.63116 6.89155,6.41988 8.07727,4.3011 1.24041,-2.21648 4.46862,-2.07251 5.06972,0.22609 0.43664,1.66969 1.38606,1.82756 9.19652,1.52912 10.23116,-0.39092 14.54984,1.62657 14.54984,6.79702 0,3.58383 0.50218,3.57361 15.5,-0.31554 6.6,-1.71147 15.98987,-3.39544 20.86637,-3.74214 l 8.86636,-0.63038 -12.33778,-5 C 185.10917,100.75 170.62899,94.078968 159.71676,88.675485 139.33323,78.582032 132.90661,76.050159 122.5,74.013328 119.2,73.367436 114.61323,72.425209 112.30718,71.91949 110.00113,71.41377 106.99019,71 105.6162,71 c -2.86281,0 -3.88423,-1.13794 -3.02688,-3.372162 0.51709,-1.347511 0.88084,-1.369097 2.75324,-0.163381 1.18659,0.764096 4.40744,1.836982 7.15744,2.384193 16.5464,3.292496 35.34401,9.818005 47.57946,16.517003 7.51879,4.116595 26.2498,12.625976 33.42054,15.182747 2.75,0.98052 7.925,2.82164 11.5,4.09137 3.575,1.26973 5.7125,2.32021 4.75,2.33441 -1.0522,0.0155 -1.75,0.79407 -1.75,1.9525 0,1.05967 0.7875,2.14078 1.75,2.40246 0.9625,0.26168 -0.8375,0.23272 -4,-0.0644 -6.89734,-0.64792 -7.88359,1.09714 -1.5,2.6541 l 4.25,1.03657 -3.96694,-0.45006 c -2.18182,-0.24753 -5.2011,-1.36251 -6.70951,-2.47772 -4.47426,-3.30797 -16.36502,-2.62914 -13.59907,0.77634 1.07415,1.32252 1.01633,1.47347 -0.3662,0.95616 -0.90294,-0.33786 -5.62794,0.50638 -10.5,1.8761 -9.88616,2.77937 -29.84493,3.93749 -40.94971,2.37613 z m 21.58086,-6.49967 C 155.46204,110.73835 154.64221,108 152.63837,108 151.18092,108 150,110.05079 150,112.58179 c 0,1.86023 2.42308,1.81829 3.98943,-0.0691 z m -20.17607,-4.27092 c 0.37452,-3.87454 -1.03576,-4.24388 -2.65284,-0.69476 -1.60875,3.53081 -1.45347,4.65509 0.58948,4.26808 1.15255,-0.21833 1.85698,-1.43827 2.06336,-3.57332 z m -14.85232,-1.43037 C 121.36359,104.23261 121.69849,100 119.5,100 c -0.825,0 -1.5,0.86786 -1.5,1.92857 0,1.06072 -0.675,2.60357 -1.5,3.42857 -1.69517,1.69517 -1.98332,3.64286 -0.53896,3.64286 0.52858,0 1.87858,-0.98485 3,-2.18856 z M 108.5869,95.50772 C 110.2516,92.967069 109.92872,90 107.98755,90 c -0.59137,0 -0.943,0.783421 -0.78139,1.740935 0.1734,1.027333 -0.62843,2.14927 -1.95616,2.737128 -1.2375,0.547907 -2.25,1.564486 -2.25,2.259065 0,2.213045 3.89256,1.356479 5.5869,-1.229408 z m 42.57535,7.59255 c -0.70613,-0.43641 -0.93873,-1.51919 -0.54612,-2.5423 0.37613,-0.98018 0.72887,-3.18804 0.78387,-4.90636 0.12683,-3.962474 3.1655,-4.924623 4.49653,-1.423758 1.84998,4.865806 -1.39061,10.938928 -4.73428,8.872418 z m -17.82642,-3.667487 c -0.33077,-0.86197 -0.12389,-2.044719 0.45972,-2.628331 0.74815,-0.74815 0.71358,-1.622138 -0.11722,-2.963295 -0.92898,-1.499655 -0.89039,-2.081402 0.18237,-2.749102 2.17181,-1.351771 5.10945,-0.05915 5.76048,2.534722 1.14555,4.564259 -4.69245,9.957033 -6.28535,5.806006 z M 137.91706,96.75 c 0.51339,-1.354811 0.45185,-2.747327 -0.15467,-3.5 C 136.08565,91.169225 135.4,91.822257 135.4,95.5 c 0,3.974482 1.24951,4.595 2.51706,1.25 z m -19.43851,-5.912155 c 0.41677,-1.285815 0.72041,-3.604569 0.67477,-5.152788 -0.0683,-2.317594 0.29028,-2.759299 2.02971,-2.5 5.21988,0.778131 4.29167,8.878828 -1.10605,9.652788 -2.06543,0.296155 -2.26268,0.04935 -1.59843,-2 z M 51.5,78.594965 l -6,-5.947103 5.66428,4.231495 c 4.731303,3.534516 7.765832,6.993994 6.609259,7.534805 C 57.623092,84.484511 54.8,81.865872 51.5,78.594965 Z M 42.043568,56.39836 c 1.076038,-2.510294 1.98806,-5.314363 2.026717,-6.231265 0.05542,-1.314526 0.238537,-1.244121 0.865847,0.332905 0.437559,1.1 0.405931,2.15 -0.07028,2.333333 C 44.389631,53.016667 44,54.370921 44,55.842787 c 0,1.573248 -0.806277,3.179648 -1.956432,3.897931 -1.941909,1.212743 -1.941909,1.187932 0,-3.342358 z"
             id="path31206"
             inkscape:connector-curvature="0"
             inkscape:export-filename="/home/vicent/logo.png"
             inkscape:export-xdpi="151"
             inkscape:export-ydpi="151" />
          <path
             style="fill:#ffffff"
             d="m 150,112.58179 c 0,-2.531 1.18092,-4.58179 2.63837,-4.58179 2.00384,0 2.82367,2.73835 1.35106,4.51273 -1.56635,1.88735 -3.98943,1.92929 -3.98943,0.0691 z m -20,-1.46141 C 130,109.33473 132.28329,105 133.22387,105 c 1.75101,0 0.35194,6.46926 -1.47387,6.81513 -0.9625,0.18234 -1.75,-0.1303 -1.75,-0.69475 z m -15,-3.19181 c 0,-0.58928 0.675,-1.74643 1.5,-2.57143 0.825,-0.825 1.5,-2.36785 1.5,-3.42857 0,-1.06071 0.675,-1.92857 1.5,-1.92857 2.19849,0 1.86359,4.23261 -0.53896,6.81144 C 116.77029,109.16294 115,109.66221 115,107.92857 Z M 135.4,95.5 c 0,-3.677743 0.68565,-4.330775 2.36239,-2.25 1.08256,1.343426 -0.0901,5.75 -1.53017,5.75 C 135.7745,99 135.4,97.425 135.4,95.5 Z M 103,96.737128 c 0,-0.694579 1.0125,-1.711158 2.25,-2.259065 1.32773,-0.587858 2.12956,-1.709795 1.95616,-2.737128 -0.35997,-2.132777 1.633,-2.323643 2.43518,-0.233215 C 110.46132,93.64457 107.33216,98 104.97695,98 103.88963,98 103,97.431708 103,96.737128 Z M 77,65 c -1.375,-0.440352 -1.8475,-0.845496 -1.05,-0.90032 1.099329,-0.07557 1.169689,-0.379991 0.290933,-1.258747 -0.718338,-0.718338 -0.953143,-2.904747 -0.61751,-5.75 C 76.026019,53.678007 75.891148,52.884891 75.097803,54 73.989863,55.557296 73.991198,55.560762 73.592991,50.09464 73.480568,48.55144 72.183802,48.165414 64,47.23897 59.13556,46.688293 58.846669,46.536627 61.5,45.926487 l 3,-0.689857 -3.069665,-0.118315 c -1.916221,-0.07386 -3.879532,-1.049744 -5.22497,-2.597134 l -2.155305,-2.478819 7.01055,-2.12939 C 78.193596,32.708988 102,46.694453 102,61.963493 102,65.103107 84.107761,67.276303 77,65 Z"
             id="path31208"
             inkscape:connector-curvature="0"
             inkscape:export-filename="/home/vicent/logo.png"
             inkscape:export-xdpi="151"
             inkscape:export-ydpi="151" />
          <path
             style="fill:#ffffff"
             d="m 113.5,222.2714 c -1.1,-0.21367 -2.675,-0.65813 -3.5,-0.98767 -0.825,-0.32954 -2.175,-0.52947 -3,-0.44427 -1.08677,0.11222 -0.98927,-0.18869 0.35391,-1.09228 12.35557,-8.31193 12.11169,-8.05888 12.80155,-13.28328 0.3605,-2.73015 1.32951,-8.7889 2.15334,-13.4639 2.76235,-15.67539 3.03846,-24.09592 1.16472,-35.51952 -1.81276,-11.05175 -1.563,-12.99853 1.30029,-10.13524 2.48449,2.48448 2.3974,36.51788 -0.13217,51.65476 -0.96508,5.775 -2.00875,12.15204 -2.31927,14.17121 -0.67746,4.40528 -5.7985,9.68758 -8.82237,9.10019 z m -36.25,-3.75601 c 0,-1.78486 0.63178,-2.67111 2.125,-2.9809 1.16875,-0.24248 5.836188,-1.20174 10.372083,-2.1317 9.962727,-2.04258 9.611177,-1.65369 12.629397,-13.97072 1.33859,-5.46264 3.43069,-13.51762 4.6491,-17.89996 l 2.21529,-7.96788 -2.08051,-10.03212 c -3.23425,-15.59536 -3.68737,-19.87445 -2.04665,-19.32754 0.75849,0.25283 1.67089,1.99773 2.02758,3.87756 0.35668,1.87983 1.63641,7.69287 2.84384,12.91787 2.76885,11.98184 2.35219,16.22657 -3.3865,34.5 -3.03804,9.67388 -4.12004,14.51821 -3.50152,15.677 1.44618,2.7094 -8.995369,8.08035 -16.09711,8.28006 -3.025,0.0851 -6.45625,0.4795 -7.625,0.87652 -1.798391,0.6109 -2.125,0.33145 -2.125,-1.81819 z M 213.97864,120.0425 c -1.708,-0.91591 -22.49738,-5.04668 -25.47864,-5.06251 -3.2998,-0.0175 -5.3474,-1.75194 -3.5,-2.96468 2.69391,-1.76843 9.87153,-1.17017 12.9097,1.07605 1.88304,1.39219 5.54692,2.43837 10.95951,3.12934 5.51416,0.70395 8.13079,1.4601 8.13079,2.34963 0,1.80647 -1.25636,2.41864 -3.02136,1.47217 z M 209.75,112.24212 c -1.90306,-0.42277 -2.36237,-2.74562 -0.74105,-3.74765 1.50392,-0.92948 4.99105,0.44407 4.99105,1.96593 0,1.5669 -1.80699,2.32443 -4.25,1.78172 z M 62.95548,94.916813 C 61.78087,92.722034 63.968566,89 66.433199,89 68.395282,89 81.335582,82.211224 85.743015,78.869632 90.609088,75.18031 91.82961,75.49503 89.573736,79.85741 88.708181,81.531208 88,84.723027 88,86.95034 c 0,4.027402 -0.733035,4.916625 -2.552859,3.096801 -0.603812,-0.603812 -2.600231,0.06617 -5.45,1.828975 -8.679501,5.368951 -15.175323,6.527983 -17.041661,3.040697 z M 16,73.775041 C 16,71.941573 41.774646,59 45.426211,59 c 0.902152,0 3.94299,-1.166873 6.757418,-2.593052 4.973428,-2.520226 5.343264,-2.559988 13.168585,-1.415775 7.428548,1.086198 8.161118,1.035373 9.469077,-0.656948 1.266294,-1.638412 1.355873,-1.34412 0.839104,2.756708 -0.372427,2.955407 -0.147797,5.052318 0.630538,5.886044 C 77.267965,64.02354 77.020219,64.130013 75,63.531776 66.250787,60.940919 59.010066,62.113381 33.5,70.251709 18.702339,74.972521 16,75.516592 16,73.775041 Z M 45,50.166667 C 45,45.077665 54.465477,39.313191 56.767927,43 c 0.801535,1.283462 2.410359,2.036673 4.490547,2.102361 L 64.5,45.204723 l -3,0.748156 c -1.65,0.411485 -5.79894,1.940422 -9.219868,3.397638 C 44.881632,52.502063 45,52.488793 45,50.166667 Z"
             id="path31210"
             inkscape:connector-curvature="0"
             inkscape:export-filename="/home/vicent/logo.png"
             inkscape:export-xdpi="151"
             inkscape:export-ydpi="151" />
          <path
             style="opacity:0;fill:#ffffff;stroke:#000000;stroke-width:1px;stroke-linecap:butt;stroke-linejoin:miter;stroke-opacity:1"
             d="m 11.250678,101.94483 11.937819,10.0507 0.256477,6.98773 2.63756,24.91028 7.917696,13.51895 16.992591,8.46072 14.360048,4.10287 12.308612,4.39593 9.377991,0.58613 7.619617,0.58612 14.581781,-1.98003 39.63473,-10.91471 27.87508,-12.93586 L 164.11483,134.80861 71.507175,96.710526 62.129185,84.108851 36.632773,72.386363 14.066984,77.661482 5.25068,88.459646 Z"
             id="path31212"
             inkscape:connector-curvature="0" />
        </g>
        <path
           style="fill:#ffffff;stroke:#ffffff;stroke-width:1px;stroke-linecap:butt;stroke-linejoin:miter;stroke-opacity:1"
           d="m 33.409089,110.77751 c -1.619725,44.86287 35.511149,44.92502 72.093301,50.4067 L 122.5,158.83972 184.33612,139.20455 184.06137,127.59508 68.523662,77.626143 29.013156,75.023923 19.049041,79.712918 16.81886,84.65416 37.508041,105.849 Z"
           id="path31220"
           inkscape:connector-curvature="0"
           sodipodi:nodetypes="ccccccccccc" />
      </g>
      <path
         inkscape:connector-curvature="0"
         id="path31238"
         d="m 22.395852,83.755592 -5.45643,9.216886 14.291683,1.536449 24.743773,-3.659646 -3.809808,-12.308612 -29.72565,5.4358"
         style="fill:#ffffff;stroke:#ffffff;stroke-width:1px;stroke-linecap:butt;stroke-linejoin:miter;stroke-opacity:1" />
    </g>
    <g
       id="g31192"
       transform="matrix(-1,0,0,1,230.60146,-17.29067)">
      <g
         style="fill:#ffffff"
         transform="translate(-32.59595,26.500414)"
         id="g30373">
        <path
           style="fill:#ffffff"
           d="m 134.05016,202.22046 c 0.4547,-1.81165 0.22546,-2.5 -0.83257,-2.5 -5.6437,0 -2.42911,-3.79043 8.53634,-10.06547 8.16004,-4.66963 8.89373,-5.34407 8.98527,-8.25968 0.0548,-1.74617 0.49669,-4.29985 0.98191,-5.67485 0.61425,-1.7406 0.71632,-0.83691 0.33603,2.975 -0.67377,6.7537 -1.06936,7.23333 -10.01598,12.14352 -10.59156,5.81298 -12.25104,8.83081 -2.87821,5.23411 1.47556,-0.56622 1.55285,-0.36368 0.56536,1.48146 -1.07589,2.01033 -0.98979,2.07877 1.44877,1.15163 3.39379,-1.29032 3.46244,-1.27584 3.46244,0.73012 0,1.17547 1.69338,0.0435 5.37701,-3.59438 5.9967,-5.92221 5.50004,-4.27106 8.6093,-28.62146 0.9832,-7.7 1.83442,-12.425 1.89161,-10.5 0.0928,3.12351 -1.63521,17.89135 -3.49757,29.89086 -1.09466,7.0531 -16.29186,22.26 -15.74146,15.75151 0.17911,-2.11799 -0.28091,-2.06912 -3.36602,0.35763 -3.40668,2.67969 -4.62083,2.52251 -3.86223,-0.5 z m -22.41064,-2.8 c 0,-0.715 0.52422,-1.82422 1.16493,-2.46493 0.88658,-0.88658 0.286,-0.92225 -2.51343,-0.14929 -3.92705,1.08431 -5.6515,0.61508 -5.6515,-1.53781 0,-0.7337 -0.675,-1.59301 -1.5,-1.9096 -5.470696,-2.0993 -0.85758,-4.27673 15.18448,-7.1672 12.10502,-2.18109 11.96436,-2.03509 15.93146,-16.53598 6.13337,-22.41918 6.02363,-21.36664 3.55406,-34.0889 -1.21137,-6.24046 -2.15456,-12.02129 -2.09599,-12.84629 0.16755,-2.35985 4.86801,21.14801 4.89885,24.5 0.0152,1.65 -1.07122,6.825 -2.41423,11.5 -1.343,4.675 -3.42638,12.2458 -4.62974,16.82399 -2.512,9.55697 -2.42264,9.48869 -15.42889,11.78837 -12.07935,2.1358 -15.34721,3.35245 -12.8053,4.76755 1.1066,0.61605 1.81549,1.68259 1.57531,2.37009 -0.53551,1.53291 1.95359,1.59327 7.07376,0.17153 4.35007,-1.20791 5.53966,-0.69093 3.64985,1.58616 -1.81535,2.18736 2.09206,0.65172 8.72239,-3.42797 2.75285,-1.69384 5.30875,-3.07972 5.67977,-3.07972 2.36421,0 5.49444,-3.33661 4.63565,-4.94128 -0.66275,-1.23834 0.3846,-6.01642 3.64917,-16.64778 3.64568,-11.87249 4.5893,-16.43924 4.63071,-22.41094 0.0466,-6.71252 0.14324,-7.08001 0.92076,-3.5 1.07787,4.96289 0.63398,7.52739 -4.31013,24.90107 -2.68442,9.43311 -3.76477,14.91979 -3.36128,17.07059 0.59253,3.15847 0.5526,3.19279 -11.45832,9.84893 -12.12001,6.71659 -15.10234,7.77889 -15.10234,5.37941 z m 41.65942,-31.2 c 1.0298,-8.77745 2.32949,-13.91756 1.6872,-6.67269 -0.30852,3.48002 -0.94634,7.53002 -1.41738,9 -0.59561,1.85873 -0.67778,1.14996 -0.26982,-2.32731 z m 2.71054,-23.5 c 0,-5.775 0.16528,-8.1375 0.36728,-5.25 0.202,2.8875 0.202,7.6125 0,10.5 -0.202,2.8875 -0.36728,0.525 -0.36728,-5.25 z m 4.82832,-1 c -0.12116,-5.225 -0.43342,-11.3 -0.6939,-13.5 l -0.47362,-4 1.01799,3.98581 c 0.55989,2.1922 0.87215,8.2672 0.69391,13.5 l -0.32408,9.51419 z m -18.66971,-14 c -1.06249,-4.675 -1.95358,-9.4 -1.98019,-10.5 -0.0743,-3.07277 -4.51149,-3.37676 -4.66438,-0.31955 -0.0847,1.69321 -0.23946,1.84719 -0.57319,0.57023 -0.25146,-0.96212 -1.66176,-2.02073 -3.13401,-2.35246 C 109.70763,112.13711 95.996054,104.14202 93.648117,94.863173 91.796796,87.546913 89.67611,73.652513 89.656977,68.713861 89.626497,60.846369 88.12715,57.852714 80.517972,50.46657 l -7.179457,-6.969018 -9.099495,2.792517 c -21.06313,6.463998 -23.76126,2.217925 -4.5995,-7.238268 l 12.5,-6.168662 2.297629,-5.976981 C 85.249157,-1.219843 127.31729,3.916325 136.24172,34.45198 c 1.85927,6.361655 0.50453,5.564681 14.9241,8.77964 17.00691,3.791828 21.6186,5.511651 42.9737,16.026052 18.91708,9.314018 36.73073,16.773331 49.93684,20.910621 7.53905,2.36188 9.1156,4.01144 5.24158,5.48433 -4.0595,1.54342 -3.94543,2.84693 0.31209,3.56624 5.75256,0.97189 3.50007,8.5016 -2.54323,8.5016 -2.10229,0 -26.09828,7.935397 -42.60609,14.089707 -18.08601,6.74268 -30.36361,9.91029 -38.41214,9.91029 -4.73564,0 -5.63069,0.3104 -6.48796,2.25 -0.86941,1.96707 -0.934,1.85448 -0.5137,-0.89538 0.39009,-2.55213 0.094,-3.24651 -1.56977,-3.6816 -3.62604,-0.94823 -4.82,0.13645 -3.6968,3.35847 0.5518,1.58288 0.79355,3.68584 0.53722,4.67324 -0.30882,1.18965 -0.50517,0.89167 -0.58204,-0.8833 -0.15753,-3.63759 -2.19905,-5.41919 -7.10956,-6.20441 -5.75211,-0.9198 -5.90582,-0.61432 -3.81856,7.58935 1.02064,4.0115 1.72449,7.96863 1.56411,8.79363 -0.16039,0.825 -1.16092,-2.325 -2.22342,-7 z m 46.97143,-15.80688 c 4.95,-1.69881 14.175,-4.95223 20.5,-7.22982 6.325,-2.27758 16.1125,-5.71593 21.75,-7.640767 12.79346,-4.36813 12.75667,-4.63389 -1,-7.22329 -14.04,-2.64274 -14.40133,-2.63739 -26.93629,0.39947 -32.76315,7.937527 -74.73845,-3.74957 -84.88258,-23.633695 l -1.96928,-3.860115 -5.44692,3.616555 c -6.14698,4.081363 -13.392223,5.555205 -16.131801,3.281553 -1.905322,-1.581278 -1.528267,3.532832 1.261967,17.116452 2.803719,13.649267 7.479794,16.514167 43.354904,26.562377 13.1378,3.67975 36.65388,3.02001 49.5,-1.38872 z m -60.74932,0.22423 c -0.32046,-0.32046 -4.07524,-1.66024 -8.34395,-2.97728 -4.26871,-1.31704 -7.29132,-1.92466 -6.71691,-1.35025 0.5744,0.5744 3.69168,1.88998 6.92727,2.9235 5.9672,1.90605 9.19234,2.46278 8.13359,1.40403 z m -27.50113,-12.30183 c -2.337252,-2.136457 -4.249552,-4.461457 -4.249552,-5.166657 0,-0.70521 -0.261459,-1.02073 -0.58102,-0.70117 -0.917015,0.91701 1.514801,5.037067 4.425222,7.497337 4.54527,3.84227 4.88728,2.46738 0.40535,-1.62951 z m 149.75045,-8.115517 c 2.71704,-2.71704 2.65962,-2.79023 -2.75,-3.50559 -15.08873,-1.99533 -22.27979,-5.40337 -8.47627,-4.01713 10.53662,1.05815 13.30718,-2.35894 4.00477,-4.93932 -3.45318,-0.95786 -8.3035,-2.54985 -10.7785,-3.53775 -2.475,-0.9879 -7.2,-2.80517 -10.5,-4.038378 -3.3,-1.23321 -13.65,-5.964913 -23,-10.514895 -24.40123,-11.874351 -35.58913,-15.934789 -54,-19.598287 -2.75,-0.547211 -5.97085,-1.620097 -7.15744,-2.384193 -1.8724,-1.205716 -2.23615,-1.18413 -2.75324,0.163381 -0.85735,2.234222 0.16407,3.372162 3.02688,3.372162 1.37399,0 4.38493,0.41377 6.69098,0.91949 2.30605,0.505719 6.89282,1.447946 10.19282,2.093838 10.40661,2.036831 16.83323,4.568704 37.21676,14.662157 10.91223,5.403483 25.39241,12.074515 32.17819,14.824515 l 12.33778,5 -8.86636,0.63038 c -4.8765,0.3467 -14.26637,2.03067 -20.86637,3.74214 -14.99782,3.88915 -15.5,3.89937 -15.5,0.31554 0,-5.17045 -4.31868,-7.18794 -14.54984,-6.79702 -7.81046,0.29844 -8.75988,0.14057 -9.19652,-1.52912 -0.6011,-2.2986 -3.82931,-2.44257 -5.06972,-0.22609 -1.18572,2.11878 -6.4228,-0.66994 -8.07727,-4.3011 -1.07491,-2.359179 -4.46931,-3.174984 -5.59978,-1.345845 -1.45064,2.347175 -5.50687,-2.122895 -5.50687,-6.068711 0,-2.903071 -0.52311,-4.129766 -2.12717,-4.988235 -2.55845,-1.369241 -3.90599,0.110338 -3.12277,3.428759 0.40621,1.72109 -0.22651,1.406215 -3.23662,-1.610698 -3.71543,-3.723841 -8.58505,-5.061187 -10.01344,-2.75 -0.89352,1.445744 -2.19846,1.228198 -2.85222,-0.475496 -0.87517,-2.280631 1.97441,-8.08003 5.89812,-12.003736 4.61796,-4.617961 2.15941,-6.225238 -2.82632,-1.847708 -5.52316,4.849396 -16.85535,11.854219 -23.96958,14.816426 -5.996538,2.496825 -6.750002,3.115011 -6.750002,5.538088 0,6.135479 6.757742,6.296744 16.558322,0.395143 3.12619,-1.882494 5.81151,-3.422717 5.96737,-3.422717 0.15587,0 1.64599,2.414388 3.31138,5.365306 10.83803,19.203934 54.29594,30.196624 84.904,21.476474 l 9.24107,-2.63275 13.21061,2.43758 c 7.26584,1.34067 14.35736,3.04591 15.75893,3.78941 3.60171,1.91062 4.77421,1.83809 7.04832,-0.43602 z M 188.91659,73.051385 c 0.7276,-3.806207 -0.86415,-7.557091 -3.02998,-7.13999 -1.18982,0.229138 -1.77899,1.332991 -1.84709,3.460678 -0.055,1.71832 -0.40774,3.92618 -0.78387,4.90636 -0.39261,1.02311 -0.16001,2.10589 0.54612,2.5423 1.91132,1.18127 4.53857,-0.75487 5.11482,-3.769348 z M 171.2267,72.227748 c 2.92318,-4.461332 -0.59766,-9.98507 -4.72648,-7.41523 -1.07276,0.6677 -1.11135,1.249447 -0.18237,2.749102 0.8308,1.341157 0.86537,2.215145 0.11722,2.963295 -1.38629,1.386293 -0.28148,4.195548 1.65001,4.195548 0.82958,0 2.24331,-1.121722 3.14162,-2.492715 z m -14.6206,-8.748656 c 1.80792,-3.232113 0.60702,-6.068138 -2.78355,-6.573572 -1.73943,-0.259299 -2.09804,0.182406 -2.02971,2.5 0.0456,1.548219 -0.258,3.866973 -0.67477,5.152788 -1.11913,3.452772 3.4563,2.553017 5.48803,-1.079216 z m -59.466582,-1.68276 c 13.675172,-6.199214 17.820382,-8.519028 23.466802,-13.132908 3.55673,-2.906332 7.79809,-5.556519 9.42523,-5.889304 1.62714,-0.332786 3.16191,-1.215487 3.4106,-1.961559 0.34716,-1.041454 -0.33222,-1.207666 -2.92523,-0.715676 -9.31321,1.767061 -16.42809,1.803835 -20.8774,0.107909 -6.33077,-2.41307 -11.514513,-2.899612 -17.413097,-1.63438 -2.797798,0.600121 -6.883854,1.458046 -9.080126,1.9065 -6.038035,1.2329 -5.622629,3.332896 1.815602,9.178375 6.261957,4.921081 7.635613,7.053717 7.663964,11.898507 0.0075,1.283334 0.351155,2.168894 0.763655,1.967913 0.4125,-0.200981 2.1,-0.977401 3.75,-1.725377 z M 90.077337,56.419017 C 89.742245,55.545781 86.919152,52.927143 83.803798,50.59982 l -5.66428,-4.231495 6,5.947103 c 6.305057,6.249471 6.925923,6.678548 5.937819,4.103589 z M 64.5,45.204723 c 4.54124,-1.434577 9.012744,-2.46274 9.936675,-2.284807 0.923932,0.177933 2.440107,-0.436717 3.369277,-1.365887 0.929171,-0.929171 3.859338,-1.9801 6.511484,-2.335398 2.652145,-0.355298 6.126732,-1.062735 7.721305,-1.572082 4.239733,-1.354279 11.299879,-1.130878 14.400439,0.455666 7.21893,3.693897 29.20034,2.411821 29.20034,-1.703124 0,-25.301484 -52.75615,-36.850037 -58.660618,-12.841067 -1.214931,4.940198 -4.260002,11.162439 -5.462732,11.162439 -0.65693,0 -6.29792,2.500452 -12.53554,5.556559 -17.503,8.575567 -14.504,11.253082 5.51937,4.927701 z M 76.639518,29.897946 c 0,-7.275992 24.236642,-11.610355 28.313252,-5.063406 2.42622,3.89645 0.37308,4.76646 -7.449857,3.156857 l -7.287494,-1.499433 -5.664818,3.114249 c -6.966731,3.829981 -7.911083,3.864805 -7.911083,0.291733 z m 7.838385,-1.281547 c 5.273626,-2.97625 5.726467,-3.058602 10.997639,-2 7.300618,1.466173 9.163978,1.39282 9.163978,-0.360752 0,-6.557067 -25.800482,-3.316488 -26.819553,3.368575 -0.419446,2.751548 0.149223,2.665468 6.657936,-1.007823 z"
           id="path30322-3"
           inkscape:connector-curvature="0"
           inkscape:export-filename="/home/vicent/logo.png"
           inkscape:export-xdpi="151"
           inkscape:export-ydpi="151" />
        <path
           style="fill:#ffffff"
           d="m 144.63952,199.4363 c 0,-2.00596 -0.0687,-2.02044 -3.46244,-0.73012 -2.43856,0.92714 -2.52466,0.8587 -1.44877,-1.15163 0.98749,-1.84514 0.9102,-2.04768 -0.56536,-1.48146 -7.97387,3.05986 -8.04348,0.38536 -0.0903,-3.47056 3.77372,-1.82961 3.14467,-0.83738 -1.09648,1.72952 -1.53284,0.92774 -1.29907,1.03302 1.41338,0.6365 1.7875,-0.2613 3.25,-0.0865 3.25,0.38841 0,4.56187 11.51933,-2.485 12.29687,-7.52253 l 0.40347,-2.61397 0.14983,2.53416 c 0.10961,1.85387 -1.32664,3.99229 -5.35017,7.96584 -3.75264,3.70603 -5.5,4.88655 -5.5,3.71584 z m -27.22718,-2.88867 c 2.10896,-2.10895 1.35364,-3.00853 -2.02282,-2.40917 -2.46872,0.43823 -2.76921,0.35403 -1.25,-0.35026 2.80821,-1.30185 6.5,-1.27956 6.5,0.0393 0,0.60884 0.69837,0.839 1.55194,0.51145 0.85356,-0.32754 1.30439,-0.195 1.00183,0.29455 -0.30255,0.48954 -2.00315,1.39662 -3.77911,2.01572 -2.55117,0.88934 -2.9714,0.86803 -2.00184,-0.10154 z m -10.50281,-2.07717 c 0.24018,-0.6875 -0.46871,-1.75404 -1.57531,-2.37009 -1.8627,-1.03697 -1.73554,-1.21133 1.71365,-2.34966 2.04911,-0.67627 3.9955,-0.95973 4.32532,-0.62991 0.32981,0.32981 -0.18066,0.59966 -1.13439,0.59966 -1.91448,0 -1.33899,3.83511 0.7855,5.23469 0.61337,0.40408 -0.15978,0.74158 -1.71811,0.75 -1.83741,0.01 -2.67984,-0.42407 -2.39666,-1.23469 z m 53.10816,-51.75 c 0,-6.325 0.16237,-8.9125 0.36082,-5.75 0.19845,3.1625 0.19845,8.3375 0,11.5 -0.19845,3.1625 -0.36082,0.575 -0.36082,-5.75 z m -39.76108,-29.98668 c -3.23559,-1.03352 -6.35287,-2.3491 -6.92727,-2.9235 -0.57441,-0.57441 2.4482,0.0332 6.71691,1.35025 4.26871,1.31704 8.02349,2.65682 8.34395,2.97728 1.05875,1.05875 -2.16639,0.50202 -8.13359,-1.40403 z m -19.77289,-9.26829 c -2.910421,-2.46027 -5.342237,-6.580327 -4.425222,-7.497337 0.319561,-0.31956 0.58102,-0.004 0.58102,0.70117 0,0.7052 1.9123,3.0302 4.249552,5.166657 4.48193,4.09689 4.13992,5.47178 -0.40535,1.62951 z m 143.1558,-9.328337 c -1.97282,-1.09468 -2.11711,-1.39032 -0.68426,-1.40195 0.99866,-0.008 2.71948,0.46893 3.82406,1.06008 1.67687,0.89743 2.09785,0.7324 2.55089,-1 0.45654,-1.74582 3.30931,-3.10338 3.30931,-1.57482 0,3.25964 -5.29149,4.97449 -9,2.91669 z m -78.59143,-1.40429 c -19.2793,-2.71072 -38.84208,-13.35178 -45.23633,-24.60606 -2.47574,-4.357452 -2.79579,-5.375627 -1.25,-3.976713 2.0739,1.876858 2.07776,1.872144 2.07776,-2.539449 0,-2.509274 0.86453,-6.032821 2,-8.151363 2.52969,-4.719862 2.50565,-5.070564 -0.25,-3.646107 -1.2375,0.639691 -0.45,-0.450744 1.75,-2.42319 6.21508,-5.572232 9.63133,-4.73418 3.93246,0.964687 -3.82479,3.824795 -6.65072,9.633435 -5.78468,11.890299 0.65376,1.703694 1.9587,1.92124 2.85222,0.475496 1.42839,-2.311187 6.29801,-0.973841 10.01344,2.75 3.01011,3.016913 3.64283,3.331788 3.23662,1.610698 -0.78322,-3.318421 0.56432,-4.798 3.12277,-3.428759 1.60406,0.858469 2.12717,2.085164 2.12717,4.988235 0,3.945816 4.05623,8.415886 5.50687,6.068711 1.13047,-1.829139 4.52487,-1.013334 5.59978,1.345845 1.65447,3.63116 6.89155,6.41988 8.07727,4.3011 1.24041,-2.21648 4.46862,-2.07251 5.06972,0.22609 0.43664,1.66969 1.38606,1.82756 9.19652,1.52912 10.23116,-0.39092 14.54984,1.62657 14.54984,6.79702 0,3.58383 0.50218,3.57361 15.5,-0.31554 6.6,-1.71147 15.98987,-3.39544 20.86637,-3.74214 l 8.86636,-0.63038 -12.33778,-5 c -6.78578,-2.75 -21.26596,-9.421032 -32.17819,-14.824515 -20.38353,-10.093453 -26.81015,-12.625326 -37.21676,-14.662157 -3.3,-0.645892 -7.88677,-1.588119 -10.19282,-2.093838 -2.30605,-0.50572 -5.31699,-0.91949 -6.69098,-0.91949 -2.86281,0 -3.88423,-1.13794 -3.02688,-3.372162 0.51709,-1.347511 0.88084,-1.369097 2.75324,-0.163381 1.18659,0.764096 4.40744,1.836982 7.15744,2.384193 16.5464,3.292496 35.34401,9.818005 47.57946,16.517003 7.51879,4.116595 26.2498,12.625976 33.42054,15.182747 2.75,0.98052 7.925,2.82164 11.5,4.09137 3.575,1.26973 5.7125,2.32021 4.75,2.33441 -1.0522,0.0155 -1.75,0.79407 -1.75,1.9525 0,1.05967 0.7875,2.14078 1.75,2.40246 0.9625,0.26168 -0.8375,0.23272 -4,-0.0644 -6.89734,-0.64792 -7.88359,1.09714 -1.5,2.6541 l 4.25,1.03657 -3.96694,-0.45006 c -2.18182,-0.24753 -5.2011,-1.36251 -6.70951,-2.47772 -4.47426,-3.30797 -16.36502,-2.62914 -13.59907,0.77634 1.07415,1.32252 1.01633,1.47347 -0.3662,0.95616 -0.90294,-0.33786 -5.62794,0.50638 -10.5,1.8761 -9.88616,2.77937 -29.84493,3.93749 -40.94971,2.37613 z m 21.58086,-6.49967 c 1.47261,-1.77438 0.65278,-4.51273 -1.35106,-4.51273 -1.45745,0 -2.63837,2.05079 -2.63837,4.58179 0,1.86023 2.42308,1.81829 3.98943,-0.0691 z m -20.17607,-4.27092 c 0.37452,-3.87454 -1.03576,-4.24388 -2.65284,-0.69476 -1.60875,3.53081 -1.45347,4.65509 0.58948,4.26808 1.15255,-0.21833 1.85698,-1.43827 2.06336,-3.57332 z m -14.85232,-1.43037 c 2.40255,-2.57883 2.73745,-6.81144 0.53896,-6.81144 -0.825,0 -1.5,0.86786 -1.5,1.92857 0,1.06072 -0.675,2.60357 -1.5,3.42857 -1.69517,1.69517 -1.98332,3.64286 -0.53896,3.64286 0.52858,0 1.87858,-0.98485 3,-2.18856 z m -10.37414,-11.30372 c 1.6647,-2.540651 1.34182,-5.50772 -0.59935,-5.50772 -0.59137,0 -0.943,0.783421 -0.78139,1.740935 0.1734,1.027333 -0.62843,2.14927 -1.95616,2.737128 -1.2375,0.547907 -2.25,1.564486 -2.25,2.259065 0,2.213045 3.89256,1.356479 5.5869,-1.229408 z m 42.57535,7.59255 c -0.70613,-0.43641 -0.93873,-1.51919 -0.54612,-2.5423 0.37613,-0.98018 0.72887,-3.18804 0.78387,-4.90636 0.12683,-3.962474 3.1655,-4.924623 4.49653,-1.423758 1.84998,4.865806 -1.39061,10.938928 -4.73428,8.872418 z m -17.82642,-3.667487 c -0.33077,-0.86197 -0.12389,-2.044719 0.45972,-2.628331 0.74815,-0.74815 0.71358,-1.622138 -0.11722,-2.963295 -0.92898,-1.499655 -0.89039,-2.081402 0.18237,-2.749102 2.17181,-1.351771 5.10945,-0.05915 5.76048,2.534722 1.14555,4.564259 -4.69245,9.957033 -6.28535,5.806006 z m 4.58123,-2.682783 c 0.51339,-1.354811 0.45185,-2.747327 -0.15467,-3.5 -1.67674,-2.080775 -2.36239,-1.427743 -2.36239,2.25 0,3.974482 1.24951,4.595 2.51706,1.25 z m -19.43851,-5.912155 c 0.41677,-1.285815 0.72041,-3.604569 0.67477,-5.152788 -0.0683,-2.317594 0.29028,-2.759299 2.02971,-2.5 5.21988,0.778131 4.29167,8.878828 -1.10605,9.652788 -2.06543,0.296155 -2.26268,0.04935 -1.59843,-2 z m -66.978552,-12.24288 -6,-5.947103 5.66428,4.231495 c 4.731303,3.534516 7.765832,6.993994 6.609259,7.534805 -0.150447,0.07035 -2.973539,-2.54829 -6.273539,-5.819197 z M 74.683086,30.118823 c 1.076038,-2.510294 1.98806,-5.314363 2.026717,-6.231265 0.05542,-1.314526 0.238537,-1.244121 0.865847,0.332905 0.437559,1.1 0.405931,2.15 -0.07028,2.333333 -0.476221,0.183334 -0.865852,1.537588 -0.865852,3.009454 0,1.573248 -0.806277,3.179648 -1.956432,3.897931 -1.941909,1.212743 -1.941909,1.187932 0,-3.342358 z"
           id="path30320-6"
           inkscape:connector-curvature="0"
           inkscape:export-filename="/home/vicent/logo.png"
           inkscape:export-xdpi="151"
           inkscape:export-ydpi="151" />
        <path
           style="fill:#ffffff"
           d="m 182.63952,86.302253 c 0,-2.531 1.18092,-4.58179 2.63837,-4.58179 2.00384,0 2.82367,2.73835 1.35106,4.51273 -1.56635,1.88735 -3.98943,1.92929 -3.98943,0.0691 z m -20,-1.46141 c 0,-1.78565 2.28329,-6.12038 3.22387,-6.12038 1.75101,0 0.35194,6.46926 -1.47387,6.81513 -0.9625,0.18234 -1.75,-0.1303 -1.75,-0.69475 z m -15,-3.19181 c 0,-0.58928 0.675,-1.74643 1.5,-2.57143 0.825,-0.825 1.5,-2.36785 1.5,-3.42857 0,-1.06071 0.675,-1.92857 1.5,-1.92857 2.19849,0 1.86359,4.23261 -0.53896,6.81144 -2.19075,2.3515 -3.96104,2.85077 -3.96104,1.11713 z m 20.4,-12.42857 c 0,-3.677743 0.68565,-4.330775 2.36239,-2.25 1.08256,1.343426 -0.0901,5.75 -1.53017,5.75 -0.45772,0 -0.83222,-1.575 -0.83222,-3.5 z m -32.4,1.237128 c 0,-0.694579 1.0125,-1.711158 2.25,-2.259065 1.32773,-0.587858 2.12956,-1.709795 1.95616,-2.737128 -0.35997,-2.132777 1.633,-2.323643 2.43518,-0.233215 0.81998,2.13685 -2.30918,6.49228 -4.66439,6.49228 -1.08732,0 -1.97695,-0.568292 -1.97695,-1.262872 z m -26,-31.737128 c -1.375,-0.440352 -1.8475,-0.845496 -1.05,-0.90032 1.09933,-0.07557 1.16969,-0.379991 0.29093,-1.258747 -0.71834,-0.718338 -0.95314,-2.904747 -0.61751,-5.75 0.4026,-3.412926 0.26773,-4.206042 -0.52562,-3.090933 -1.10794,1.557296 -1.1066,1.560762 -1.50481,-3.90536 -0.11242,-1.5432 -1.40919,-1.929226 -9.592992,-2.85567 -4.86444,-0.550677 -5.153331,-0.702343 -2.5,-1.312483 l 3,-0.689857 -3.069665,-0.118315 c -1.916221,-0.07386 -3.879532,-1.049743 -5.22497,-2.597133 l -2.155305,-2.478819 7.01055,-2.12939 c 17.132982,-5.203984 40.939392,8.78148 40.939392,24.05052 0,3.139614 -17.89224,5.31281 -25,3.036507 z"
           id="path30318-7"
           inkscape:connector-curvature="0"
           inkscape:export-filename="/home/vicent/logo.png"
           inkscape:export-xdpi="151"
           inkscape:export-ydpi="151" />
        <path
           style="fill:#ffffff"
           d="m 146.13952,195.99186 c -1.1,-0.21367 -2.675,-0.65813 -3.5,-0.98767 -0.825,-0.32954 -2.175,-0.52947 -3,-0.44427 -1.08677,0.11222 -0.98927,-0.18869 0.35391,-1.09228 12.35557,-8.31193 12.11169,-8.05888 12.80155,-13.28328 0.3605,-2.73015 1.32951,-8.7889 2.15334,-13.4639 2.76235,-15.67539 3.03846,-24.09592 1.16472,-35.51952 -1.81276,-11.05175 -1.563,-12.99853 1.30029,-10.13524 2.48449,2.48448 2.3974,36.51788 -0.13217,51.65476 -0.96508,5.775 -2.00875,12.15204 -2.31927,14.17121 -0.67746,4.40528 -5.7985,9.68758 -8.82237,9.10019 z m -36.25,-3.75601 c 0,-1.78486 0.63178,-2.67111 2.125,-2.9809 1.16875,-0.24248 5.83619,-1.20174 10.37208,-2.1317 9.96273,-2.04258 9.61117,-1.65369 12.6294,-13.97072 1.33859,-5.46264 3.43069,-13.51762 4.6491,-17.89996 l 2.21529,-7.96788 -2.08051,-10.03212 c -3.23425,-15.59536 -3.68737,-19.87445 -2.04665,-19.32754 0.75849,0.25283 1.67089,1.99773 2.02758,3.87756 0.35668,1.87983 1.63641,7.69287 2.84384,12.91787 2.76885,11.98184 2.35219,16.22657 -3.3865,34.5 -3.03804,9.67388 -4.12004,14.51821 -3.50152,15.677 1.44618,2.7094 -8.99537,8.08035 -16.09711,8.28006 -3.025,0.0851 -6.45625,0.4795 -7.625,0.87652 -1.79839,0.6109 -2.125,0.33145 -2.125,-1.81819 z M 246.61816,93.762963 c -1.708,-0.91591 -22.49738,-5.04668 -25.47864,-5.06251 -3.2998,-0.0175 -5.3474,-1.75194 -3.5,-2.96468 2.69391,-1.76843 9.87153,-1.17017 12.9097,1.07605 1.88304,1.39219 5.54692,2.43837 10.95951,3.12934 5.51416,0.70395 8.13079,1.4601 8.13079,2.34963 0,1.80647 -1.25636,2.41864 -3.02136,1.47217 z m -4.22864,-7.80038 c -1.90306,-0.42277 -2.36237,-2.74562 -0.74105,-3.74765 1.50392,-0.92948 4.99105,0.44407 4.99105,1.96593 0,1.5669 -1.80699,2.32443 -4.25,1.78172 z M 95.594998,68.637276 c -1.17461,-2.194779 1.013086,-5.916813 3.477719,-5.916813 1.962083,0 14.902383,-6.788776 19.309813,-10.130368 4.86608,-3.689322 6.0866,-3.374602 3.83072,0.987778 -0.86555,1.673798 -1.57373,4.865617 -1.57373,7.09293 0,4.027402 -0.73304,4.916625 -2.55286,3.096801 -0.60381,-0.603812 -2.60023,0.06617 -5.45,1.828975 -8.6795,5.368951 -15.175324,6.527983 -17.041662,3.040697 z M 48.63952,47.495504 c 0,-1.833468 25.774644,-14.775041 29.426209,-14.775041 0.902152,0 3.94299,-1.166873 6.757418,-2.593052 4.973428,-2.520226 5.343264,-2.559988 13.168585,-1.415775 7.428548,1.086198 8.161118,1.035373 9.469078,-0.656948 1.26629,-1.638412 1.35587,-1.34412 0.8391,2.756708 -0.37242,2.955407 -0.14779,5.052318 0.63054,5.886044 0.97703,1.046563 0.72929,1.153036 -1.29093,0.554799 -8.749215,-2.590857 -15.989936,-1.418395 -41.5,6.719933 -14.79766,4.720812 -17.5,5.264883 -17.5,3.523332 z M 77.639518,23.88713 c 0,-5.089002 9.465477,-10.853475 11.767927,-7.166666 0.801535,1.283462 2.410359,2.036672 4.490547,2.10236 l 3.241526,0.102362 -3,0.748156 c -1.65,0.411485 -5.79894,1.940422 -9.219868,3.397638 -7.3985,3.151546 -7.280132,3.138276 -7.280132,0.81615 z"
           id="path30316-5"
           inkscape:connector-curvature="0"
           inkscape:export-filename="/home/vicent/logo.png"
           inkscape:export-xdpi="151"
           inkscape:export-ydpi="151" />
      </g>
      <path
         inkscape:export-ydpi="151"
         inkscape:export-xdpi="151"
         inkscape:export-filename="/home/vicent/logo.png"
         inkscape:connector-curvature="0"
         id="path30322"
         d="m 101.41064,228.5 c 0.4547,-1.81165 0.22546,-2.5 -0.83257,-2.5 -5.643699,0 -2.429105,-3.79043 8.53634,-10.06547 8.16004,-4.66963 8.89373,-5.34407 8.98527,-8.25968 0.0548,-1.74617 0.49669,-4.29985 0.98191,-5.67485 0.61425,-1.7406 0.71632,-0.83691 0.33603,2.975 -0.67377,6.7537 -1.06936,7.23333 -10.01598,12.14352 -10.591558,5.81298 -12.25104,8.83081 -2.87821,5.23411 1.47556,-0.56622 1.55285,-0.36368 0.56536,1.48146 -1.07589,2.01033 -0.98979,2.07877 1.44877,1.15163 3.39379,-1.29032 3.46244,-1.27584 3.46244,0.73012 0,1.17547 1.69338,0.0435 5.37701,-3.59438 5.9967,-5.92221 5.50004,-4.27106 8.6093,-28.62146 0.9832,-7.7 1.83442,-12.425 1.89161,-10.5 0.0928,3.12351 -1.63521,17.89135 -3.49757,29.89086 -1.09466,7.0531 -16.29186,22.26 -15.74146,15.75151 0.17911,-2.11799 -0.28091,-2.06912 -3.36602,0.35763 -3.40668,2.67969 -4.62083,2.52251 -3.86223,-0.5 z M 79,225.7 c 0,-0.715 0.52422,-1.82422 1.164933,-2.46493 0.886577,-0.88658 0.286002,-0.92225 -2.513435,-0.14929 C 73.724447,224.17009 72,223.70086 72,221.54797 c 0,-0.7337 -0.675,-1.59301 -1.5,-1.9096 -5.470694,-2.0993 -0.857576,-4.27673 15.184482,-7.1672 12.105018,-2.18109 11.964355,-2.03509 15.931458,-16.53598 6.13337,-22.41918 6.02363,-21.36664 3.55406,-34.0889 -1.21137,-6.24046 -2.15456,-12.02129 -2.09599,-12.84629 0.16755,-2.35985 4.86801,21.14801 4.89885,24.5 0.0152,1.65 -1.07122,6.825 -2.41423,11.5 -1.343,4.675 -3.42638,12.2458 -4.62974,16.82399 -2.512002,9.55697 -2.422638,9.48869 -15.42889,11.78837 -12.079352,2.1358 -15.347211,3.35245 -12.805298,4.76755 1.106598,0.61605 1.81549,1.68259 1.575314,2.37009 -0.535518,1.53291 1.953582,1.59327 7.073755,0.17153 4.350068,-1.20791 5.539663,-0.69093 3.649849,1.58616 -1.815346,2.18736 2.092058,0.65172 8.722387,-3.42797 C 96.468862,217.38588 99.024761,216 99.395782,216 c 2.364208,0 5.494438,-3.33661 4.635648,-4.94128 -0.66275,-1.23834 0.3846,-6.01642 3.64917,-16.64778 3.64568,-11.87249 4.5893,-16.43924 4.63071,-22.41094 0.0466,-6.71252 0.14324,-7.08001 0.92076,-3.5 1.07787,4.96289 0.63398,7.52739 -4.31013,24.90107 -2.68442,9.43311 -3.76477,14.91979 -3.36128,17.07059 0.59253,3.15847 0.5526,3.19279 -11.458318,9.84893 C 81.982335,227.03718 79,228.09948 79,225.7 Z m 41.65942,-31.2 c 1.0298,-8.77745 2.32949,-13.91756 1.6872,-6.67269 -0.30852,3.48002 -0.94634,7.53002 -1.41738,9 -0.59561,1.85873 -0.67778,1.14996 -0.26982,-2.32731 z m 2.71054,-23.5 c 0,-5.775 0.16528,-8.1375 0.36728,-5.25 0.202,2.8875 0.202,7.6125 0,10.5 -0.202,2.8875 -0.36728,0.525 -0.36728,-5.25 z m 4.82832,-1 c -0.12116,-5.225 -0.43342,-11.3 -0.6939,-13.5 l -0.47362,-4 1.01799,3.98581 c 0.55989,2.1922 0.87215,8.2672 0.69391,13.5 L 128.41858,179.5 Z m -18.66971,-14 c -1.06249,-4.675 -1.95358,-9.4 -1.98019,-10.5 -0.0743,-3.07277 -4.51149,-3.37676 -4.66438,-0.31955 -0.0847,1.69321 -0.23946,1.84719 -0.57319,0.57023 -0.25146,-0.96212 -1.66176,-2.02073 -3.134003,-2.35246 C 77.068114,138.41665 63.356536,130.42156 61.008599,121.14271 59.157278,113.82645 57.036592,99.93205 57.017459,94.993398 56.98698,87.125906 55.487632,84.132251 47.878454,76.746107 l -7.179457,-6.969018 -9.099498,2.792517 C 10.536373,79.033604 7.8382408,74.787531 27,65.331338 l 12.5,-6.168662 2.297631,-5.976981 c 10.812008,-28.126002 52.880143,-22.989834 61.804569,7.545822 1.85927,6.361655 0.50453,5.564681 14.9241,8.77964 17.00691,3.791828 21.6186,5.511651 42.9737,16.026052 18.91708,9.314018 36.73073,16.773331 49.93684,20.910621 7.53905,2.36188 9.1156,4.01144 5.24158,5.48433 -4.0595,1.54342 -3.94543,2.84693 0.31209,3.56624 5.75256,0.97189 3.50007,8.5016 -2.54323,8.5016 -2.10229,0 -26.09828,7.9354 -42.60609,14.08971 C 153.75518,144.83239 141.47758,148 133.42905,148 c -4.73564,0 -5.63069,0.3104 -6.48796,2.25 -0.86941,1.96707 -0.934,1.85448 -0.5137,-0.89538 0.39009,-2.55213 0.094,-3.24651 -1.56977,-3.6816 -3.62604,-0.94823 -4.82,0.13645 -3.6968,3.35847 0.5518,1.58288 0.79355,3.68584 0.53722,4.67324 -0.30882,1.18965 -0.50517,0.89167 -0.58204,-0.8833 -0.15753,-3.63759 -2.19905,-5.41919 -7.10956,-6.20441 -5.75211,-0.9198 -5.90582,-0.61432 -3.81856,7.58935 1.02064,4.0115 1.72449,7.96863 1.56411,8.79363 -0.16039,0.825 -1.16092,-2.325 -2.22342,-7 z M 156.5,140.19312 c 4.95,-1.69881 14.175,-4.95223 20.5,-7.22982 6.325,-2.27758 16.1125,-5.71593 21.75,-7.64077 12.79346,-4.36813 12.75667,-4.63389 -1,-7.22329 -14.04,-2.64274 -14.40133,-2.63739 -26.93629,0.39947 -32.76315,7.93753 -74.73845,-3.74957 -84.882574,-23.633695 L 83.961852,91.0049 78.514927,94.621455 c -6.146977,4.081363 -13.392218,5.555205 -16.131796,3.281553 -1.905322,-1.581278 -1.528267,3.532832 1.261967,17.116452 2.803719,13.64927 7.479789,16.51417 43.354902,26.56238 13.1378,3.67975 36.65388,3.02001 49.5,-1.38872 z m -60.74932,0.22423 c -0.320459,-0.32046 -4.075234,-1.66024 -8.343944,-2.97728 -4.268711,-1.31704 -7.291324,-1.92466 -6.716919,-1.35025 0.574405,0.5744 3.69168,1.88998 6.927278,2.9235 5.967193,1.90605 9.192335,2.46278 8.133585,1.40403 z M 68.249556,128.11552 C 65.9123,125.97906 64,123.65406 64,122.94886 c 0,-0.70521 -0.261459,-1.02073 -0.58102,-0.70117 -0.917015,0.91701 1.514801,5.03707 4.425223,7.49734 4.545266,3.84227 4.88728,2.46738 0.405353,-1.62951 z M 218,120 c 2.71704,-2.71704 2.65962,-2.79023 -2.75,-3.50559 -15.08873,-1.99533 -22.27979,-5.40337 -8.47627,-4.01713 10.53662,1.05815 13.30718,-2.35894 4.00477,-4.93932 -3.45318,-0.95786 -8.3035,-2.54985 -10.7785,-3.53775 -2.475,-0.9879 -7.2,-2.80517 -10.5,-4.038378 -3.3,-1.23321 -13.65,-5.964913 -23,-10.514895 -24.40123,-11.874351 -35.58913,-15.934789 -54,-19.598287 -2.75,-0.547211 -5.97085,-1.620097 -7.15744,-2.384193 -1.8724,-1.205716 -2.23615,-1.18413 -2.75324,0.163381 C 101.73197,69.86206 102.75339,71 105.6162,71 c 1.37399,0 4.38493,0.41377 6.69098,0.91949 2.30605,0.505719 6.89282,1.447946 10.19282,2.093838 10.40661,2.036831 16.83323,4.568704 37.21676,14.662157 C 170.62899,94.078968 185.10917,100.75 191.89495,103.5 l 12.33778,5 -8.86636,0.63038 c -4.8765,0.3467 -14.26637,2.03067 -20.86637,3.74214 -14.99782,3.88915 -15.5,3.89937 -15.5,0.31554 0,-5.17045 -4.31868,-7.18794 -14.54984,-6.79702 -7.81046,0.29844 -8.75988,0.14057 -9.19652,-1.52912 -0.6011,-2.2986 -3.82931,-2.44257 -5.06972,-0.22609 -1.18572,2.11878 -6.4228,-0.66994 -8.07727,-4.3011 -1.07491,-2.359179 -4.46931,-3.174984 -5.59978,-1.345845 C 115.05623,101.33606 111,96.86599 111,92.920174 c 0,-2.903071 -0.52311,-4.129766 -2.12717,-4.988235 -2.55845,-1.369241 -3.90599,0.110338 -3.12277,3.428759 0.40621,1.72109 -0.22651,1.406215 -3.23662,-1.610698 C 98.798008,86.026159 93.928392,84.688813 92.5,87 91.606481,88.445744 90.301545,88.228198 89.647777,86.524504 88.772616,84.243873 91.622193,78.444474 95.545899,74.520768 100.16386,69.902807 97.705314,68.29553 92.719583,72.67306 87.196426,77.522456 75.864227,84.527279 68.75,87.489486 62.753464,89.986311 62,90.604497 62,93.027574 c 0,6.135479 6.757745,6.296744 16.558323,0.395143 C 81.684515,91.540223 84.369832,90 84.525696,90 c 0.155863,0 1.645983,2.414388 3.311378,5.365306 10.83803,19.203934 54.295936,30.196624 84.903996,21.476474 l 9.24107,-2.63275 13.21061,2.43758 c 7.26584,1.34067 14.35736,3.04591 15.75893,3.78941 3.60171,1.91062 4.77421,1.83809 7.04832,-0.43602 z M 156.27707,99.330922 c 0.7276,-3.806207 -0.86415,-7.557091 -3.02998,-7.13999 -1.18982,0.229138 -1.77899,1.332991 -1.84709,3.460678 -0.055,1.71832 -0.40774,3.92618 -0.78387,4.90636 -0.39261,1.02311 -0.16001,2.10589 0.54612,2.5423 1.91132,1.18127 4.53857,-0.75487 5.11482,-3.769348 z m -17.68989,-0.823637 c 2.92318,-4.461332 -0.59766,-9.98507 -4.72648,-7.41523 -1.07276,0.6677 -1.11135,1.249447 -0.18237,2.749102 0.8308,1.341157 0.86537,2.215145 0.11722,2.963295 C 132.40926,98.190745 133.51407,101 135.44556,101 c 0.82958,0 2.24331,-1.121722 3.14162,-2.492715 z m -14.6206,-8.748656 c 1.80792,-3.232113 0.60702,-6.068138 -2.78355,-6.573572 -1.73943,-0.259299 -2.09804,0.182406 -2.02971,2.5 0.0456,1.548219 -0.258,3.866973 -0.67477,5.152788 -1.11913,3.452772 3.4563,2.553017 5.48803,-1.079216 z M 64.5,88.075869 c 13.675172,-6.199214 17.820378,-8.519028 23.466797,-13.132908 3.556739,-2.906332 7.798094,-5.556519 9.425235,-5.889304 1.627141,-0.332786 3.161908,-1.215487 3.410598,-1.961559 0.34716,-1.041454 -0.33222,-1.207666 -2.925231,-0.715676 C 88.564187,68.143483 81.449316,68.180257 77,66.484331 c -6.330764,-2.41307 -11.514511,-2.899612 -17.413095,-1.63438 -2.797798,0.600121 -6.883854,1.458046 -9.080126,1.9065 -6.038035,1.2329 -5.622629,3.332896 1.815602,9.178375 6.261957,4.921081 7.635613,7.053717 7.663964,11.898507 0.0075,1.283334 0.351155,2.168894 0.763655,1.967913 0.4125,-0.200981 2.1,-0.977401 3.75,-1.725377 z M 57.437819,82.698554 C 57.102727,81.825318 54.279634,79.20668 51.16428,76.879357 L 45.5,72.647862 l 6,5.947103 c 6.305057,6.249471 6.925923,6.678548 5.937819,4.103589 z M 31.860482,71.48426 c 4.54124,-1.434577 9.012744,-2.46274 9.936675,-2.284807 0.923932,0.177933 2.440107,-0.436717 3.369277,-1.365887 0.929171,-0.929171 3.859338,-1.9801 6.511484,-2.335398 2.652145,-0.355298 6.126732,-1.062735 7.721305,-1.572082 4.239733,-1.354279 11.299874,-1.130878 14.400437,0.455666 C 81.018595,68.075649 103,66.793573 103,62.678628 103,37.377143 50.243852,25.82859 44.339384,49.837561 43.124453,54.777759 40.079382,61 38.876655,61 38.219724,61 32.578732,63.500452 26.341117,66.556559 8.8381078,75.132126 11.837109,77.809641 31.860482,71.48426 Z M 44,56.177483 c 0,-7.275992 24.23664,-11.610356 28.313252,-5.063406 2.426215,3.89645 0.373081,4.76646 -7.449857,3.156857 L 57.575901,52.771501 51.911083,55.88575 C 44.944352,59.715731 44,59.750555 44,56.177483 Z m 7.838385,-1.281547 c 5.273626,-2.97625 5.726467,-3.058602 10.997639,-2 C 70.136638,54.362109 72,54.288756 72,52.535184 c 0,-6.557067 -25.80048,-3.316488 -26.819551,3.368575 -0.419446,2.751548 0.149223,2.665468 6.657936,-1.007823 z"
         style="fill:#0d6efd;fill-opacity:1" />
      <path
         inkscape:export-ydpi="151"
         inkscape:export-xdpi="151"
         inkscape:export-filename="/home/vicent/logo.png"
         inkscape:connector-curvature="0"
         id="path30320"
         d="m 112,225.71584 c 0,-2.00596 -0.0687,-2.02044 -3.46244,-0.73012 -2.43856,0.92714 -2.52466,0.8587 -1.44877,-1.15163 0.98749,-1.84514 0.9102,-2.04768 -0.56536,-1.48146 -7.973863,3.05986 -8.043474,0.38536 -0.0903,-3.47056 3.77372,-1.82961 3.14467,-0.83738 -1.09648,1.72952 -1.53284,0.92774 -1.29907,1.03302 1.41338,0.6365 1.7875,-0.2613 3.25,-0.0865 3.25,0.38841 0,4.56187 11.51933,-2.485 12.29687,-7.52253 l 0.40347,-2.61397 0.14983,2.53416 c 0.10961,1.85387 -1.32664,3.99229 -5.35017,7.96584 -3.75264,3.70603 -5.5,4.88655 -5.5,3.71584 z m -27.227174,-2.88867 c 2.108955,-2.10895 1.353636,-3.00853 -2.022826,-2.40917 -2.468715,0.43823 -2.769209,0.35403 -1.25,-0.35026 2.808213,-1.30185 6.5,-1.27956 6.5,0.0393 0,0.60884 0.698372,0.839 1.551938,0.51145 0.853566,-0.32754 1.304393,-0.195 1.001838,0.29455 -0.302555,0.48954 -2.003155,1.39662 -3.779111,2.01572 -2.551177,0.88934 -2.971404,0.86803 -2.001839,-0.10154 z M 74.270016,220.75 c 0.240176,-0.6875 -0.468716,-1.75404 -1.575314,-2.37009 -1.862701,-1.03697 -1.735543,-1.21133 1.713652,-2.34966 2.049108,-0.67627 3.995499,-0.95973 4.325315,-0.62991 0.329815,0.32981 -0.18066,0.59966 -1.13439,0.59966 -1.914477,0 -1.338991,3.83511 0.785502,5.23469 0.613371,0.40408 -0.159781,0.74158 -1.718114,0.75 -1.837401,0.01 -2.679837,-0.42407 -2.396651,-1.23469 z M 127.37817,169 c 0,-6.325 0.16237,-8.9125 0.36082,-5.75 0.19845,3.1625 0.19845,8.3375 0,11.5 -0.19845,3.1625 -0.36082,0.575 -0.36082,-5.75 z M 87.617095,139.01332 c -3.235598,-1.03352 -6.352873,-2.3491 -6.927278,-2.9235 -0.574405,-0.57441 2.448208,0.0332 6.716919,1.35025 4.26871,1.31704 8.023485,2.65682 8.343944,2.97728 1.05875,1.05875 -2.166392,0.50202 -8.133585,-1.40403 z m -19.772892,-9.26829 c -2.910422,-2.46027 -5.342238,-6.58033 -4.425223,-7.49734 0.319561,-0.31956 0.58102,-0.004 0.58102,0.70117 0,0.7052 1.9123,3.0302 4.249556,5.16666 4.481927,4.09689 4.139913,5.47178 -0.405353,1.62951 z M 211,120.41669 c -1.97282,-1.09468 -2.11711,-1.39032 -0.68426,-1.40195 0.99866,-0.008 2.71948,0.46893 3.82406,1.06008 1.67687,0.89743 2.09785,0.7324 2.55089,-1 C 217.14723,117.329 220,115.97144 220,117.5 c 0,3.25964 -5.29149,4.97449 -9,2.91669 z m -78.59143,-1.40429 c -19.2793,-2.71072 -38.842077,-13.35178 -45.236331,-24.60606 -2.47574,-4.357452 -2.795783,-5.375627 -1.25,-3.976713 C 87.996143,92.306485 88,92.301771 88,87.890178 c 0,-2.509274 0.864529,-6.032821 2,-8.151363 2.529695,-4.719862 2.505649,-5.070564 -0.25,-3.646107 -1.2375,0.639691 -0.45,-0.450744 1.75,-2.42319 6.215081,-5.572232 9.63133,-4.73418 3.932462,0.964687 C 91.607667,78.459 88.781737,84.26764 89.647777,86.524504 90.301545,88.228198 91.606481,88.445744 92.5,87 c 1.428392,-2.311187 6.298008,-0.973841 10.01344,2.75 3.01011,3.016913 3.64283,3.331788 3.23662,1.610698 -0.78322,-3.318421 0.56432,-4.798 3.12277,-3.428759 1.60406,0.858469 2.12717,2.085164 2.12717,4.988235 0,3.945816 4.05623,8.415886 5.50687,6.068711 1.13047,-1.829139 4.52487,-1.013334 5.59978,1.345845 1.65447,3.63116 6.89155,6.41988 8.07727,4.3011 1.24041,-2.21648 4.46862,-2.07251 5.06972,0.22609 0.43664,1.66969 1.38606,1.82756 9.19652,1.52912 10.23116,-0.39092 14.54984,1.62657 14.54984,6.79702 0,3.58383 0.50218,3.57361 15.5,-0.31554 6.6,-1.71147 15.98987,-3.39544 20.86637,-3.74214 l 8.86636,-0.63038 -12.33778,-5 C 185.10917,100.75 170.62899,94.078968 159.71676,88.675485 139.33323,78.582032 132.90661,76.050159 122.5,74.013328 119.2,73.367436 114.61323,72.425209 112.30718,71.91949 110.00113,71.41377 106.99019,71 105.6162,71 c -2.86281,0 -3.88423,-1.13794 -3.02688,-3.372162 0.51709,-1.347511 0.88084,-1.369097 2.75324,-0.163381 1.18659,0.764096 4.40744,1.836982 7.15744,2.384193 16.5464,3.292496 35.34401,9.818005 47.57946,16.517003 7.51879,4.116595 26.2498,12.625976 33.42054,15.182747 2.75,0.98052 7.925,2.82164 11.5,4.09137 3.575,1.26973 5.7125,2.32021 4.75,2.33441 -1.0522,0.0155 -1.75,0.79407 -1.75,1.9525 0,1.05967 0.7875,2.14078 1.75,2.40246 0.9625,0.26168 -0.8375,0.23272 -4,-0.0644 -6.89734,-0.64792 -7.88359,1.09714 -1.5,2.6541 l 4.25,1.03657 -3.96694,-0.45006 c -2.18182,-0.24753 -5.2011,-1.36251 -6.70951,-2.47772 -4.47426,-3.30797 -16.36502,-2.62914 -13.59907,0.77634 1.07415,1.32252 1.01633,1.47347 -0.3662,0.95616 -0.90294,-0.33786 -5.62794,0.50638 -10.5,1.8761 -9.88616,2.77937 -29.84493,3.93749 -40.94971,2.37613 z m 21.58086,-6.49967 C 155.46204,110.73835 154.64221,108 152.63837,108 151.18092,108 150,110.05079 150,112.58179 c 0,1.86023 2.42308,1.81829 3.98943,-0.0691 z m -20.17607,-4.27092 c 0.37452,-3.87454 -1.03576,-4.24388 -2.65284,-0.69476 -1.60875,3.53081 -1.45347,4.65509 0.58948,4.26808 1.15255,-0.21833 1.85698,-1.43827 2.06336,-3.57332 z m -14.85232,-1.43037 C 121.36359,104.23261 121.69849,100 119.5,100 c -0.825,0 -1.5,0.86786 -1.5,1.92857 0,1.06072 -0.675,2.60357 -1.5,3.42857 -1.69517,1.69517 -1.98332,3.64286 -0.53896,3.64286 0.52858,0 1.87858,-0.98485 3,-2.18856 z M 108.5869,95.50772 C 110.2516,92.967069 109.92872,90 107.98755,90 c -0.59137,0 -0.943,0.783421 -0.78139,1.740935 0.1734,1.027333 -0.62843,2.14927 -1.95616,2.737128 -1.2375,0.547907 -2.25,1.564486 -2.25,2.259065 0,2.213045 3.89256,1.356479 5.5869,-1.229408 z m 42.57535,7.59255 c -0.70613,-0.43641 -0.93873,-1.51919 -0.54612,-2.5423 0.37613,-0.98018 0.72887,-3.18804 0.78387,-4.90636 0.12683,-3.962474 3.1655,-4.924623 4.49653,-1.423758 1.84998,4.865806 -1.39061,10.938928 -4.73428,8.872418 z m -17.82642,-3.667487 c -0.33077,-0.86197 -0.12389,-2.044719 0.45972,-2.628331 0.74815,-0.74815 0.71358,-1.622138 -0.11722,-2.963295 -0.92898,-1.499655 -0.89039,-2.081402 0.18237,-2.749102 2.17181,-1.351771 5.10945,-0.05915 5.76048,2.534722 1.14555,4.564259 -4.69245,9.957033 -6.28535,5.806006 z M 137.91706,96.75 c 0.51339,-1.354811 0.45185,-2.747327 -0.15467,-3.5 C 136.08565,91.169225 135.4,91.822257 135.4,95.5 c 0,3.974482 1.24951,4.595 2.51706,1.25 z m -19.43851,-5.912155 c 0.41677,-1.285815 0.72041,-3.604569 0.67477,-5.152788 -0.0683,-2.317594 0.29028,-2.759299 2.02971,-2.5 5.21988,0.778131 4.29167,8.878828 -1.10605,9.652788 -2.06543,0.296155 -2.26268,0.04935 -1.59843,-2 z M 51.5,78.594965 l -6,-5.947103 5.66428,4.231495 c 4.731303,3.534516 7.765832,6.993994 6.609259,7.534805 C 57.623092,84.484511 54.8,81.865872 51.5,78.594965 Z M 42.043568,56.39836 c 1.076038,-2.510294 1.98806,-5.314363 2.026717,-6.231265 0.05542,-1.314526 0.238537,-1.244121 0.865847,0.332905 0.437559,1.1 0.405931,2.15 -0.07028,2.333333 C 44.389631,53.016667 44,54.370921 44,55.842787 c 0,1.573248 -0.806277,3.179648 -1.956432,3.897931 -1.941909,1.212743 -1.941909,1.187932 0,-3.342358 z"
         style="fill:#ffffff" />
      <path
         inkscape:export-ydpi="151"
         inkscape:export-xdpi="151"
         inkscape:export-filename="/home/vicent/logo.png"
         inkscape:connector-curvature="0"
         id="path30318"
         d="m 150,112.58179 c 0,-2.531 1.18092,-4.58179 2.63837,-4.58179 2.00384,0 2.82367,2.73835 1.35106,4.51273 -1.56635,1.88735 -3.98943,1.92929 -3.98943,0.0691 z m -20,-1.46141 C 130,109.33473 132.28329,105 133.22387,105 c 1.75101,0 0.35194,6.46926 -1.47387,6.81513 -0.9625,0.18234 -1.75,-0.1303 -1.75,-0.69475 z m -15,-3.19181 c 0,-0.58928 0.675,-1.74643 1.5,-2.57143 0.825,-0.825 1.5,-2.36785 1.5,-3.42857 0,-1.06071 0.675,-1.92857 1.5,-1.92857 2.19849,0 1.86359,4.23261 -0.53896,6.81144 C 116.77029,109.16294 115,109.66221 115,107.92857 Z M 135.4,95.5 c 0,-3.677743 0.68565,-4.330775 2.36239,-2.25 1.08256,1.343426 -0.0901,5.75 -1.53017,5.75 C 135.7745,99 135.4,97.425 135.4,95.5 Z M 103,96.737128 c 0,-0.694579 1.0125,-1.711158 2.25,-2.259065 1.32773,-0.587858 2.12956,-1.709795 1.95616,-2.737128 -0.35997,-2.132777 1.633,-2.323643 2.43518,-0.233215 C 110.46132,93.64457 107.33216,98 104.97695,98 103.88963,98 103,97.431708 103,96.737128 Z M 77,65 c -1.375,-0.440352 -1.8475,-0.845496 -1.05,-0.90032 1.099329,-0.07557 1.169689,-0.379991 0.290933,-1.258747 -0.718338,-0.718338 -0.953143,-2.904747 -0.61751,-5.75 C 76.026019,53.678007 75.891148,52.884891 75.097803,54 73.989863,55.557296 73.991198,55.560762 73.592991,50.09464 73.480568,48.55144 72.183802,48.165414 64,47.23897 59.13556,46.688293 58.846669,46.536627 61.5,45.926487 l 3,-0.689857 -3.069665,-0.118315 c -1.916221,-0.07386 -3.879532,-1.049744 -5.22497,-2.597134 l -2.155305,-2.478819 7.01055,-2.12939 C 78.193596,32.708988 102,46.694453 102,61.963493 102,65.103107 84.107761,67.276303 77,65 Z"
         style="fill:#0d6efd;fill-opacity:1" />
      <path
         inkscape:export-ydpi="151"
         inkscape:export-xdpi="151"
         inkscape:export-filename="/home/vicent/logo.png"
         inkscape:connector-curvature="0"
         id="path30316"
         d="m 113.5,222.2714 c -1.1,-0.21367 -2.675,-0.65813 -3.5,-0.98767 -0.825,-0.32954 -2.175,-0.52947 -3,-0.44427 -1.08677,0.11222 -0.98927,-0.18869 0.35391,-1.09228 12.35557,-8.31193 12.11169,-8.05888 12.80155,-13.28328 0.3605,-2.73015 1.32951,-8.7889 2.15334,-13.4639 2.76235,-15.67539 3.03846,-24.09592 1.16472,-35.51952 -1.81276,-11.05175 -1.563,-12.99853 1.30029,-10.13524 2.48449,2.48448 2.3974,36.51788 -0.13217,51.65476 -0.96508,5.775 -2.00875,12.15204 -2.31927,14.17121 -0.67746,4.40528 -5.7985,9.68758 -8.82237,9.10019 z m -36.25,-3.75601 c 0,-1.78486 0.63178,-2.67111 2.125,-2.9809 1.16875,-0.24248 5.836188,-1.20174 10.372083,-2.1317 9.962727,-2.04258 9.611177,-1.65369 12.629397,-13.97072 1.33859,-5.46264 3.43069,-13.51762 4.6491,-17.89996 l 2.21529,-7.96788 -2.08051,-10.03212 c -3.23425,-15.59536 -3.68737,-19.87445 -2.04665,-19.32754 0.75849,0.25283 1.67089,1.99773 2.02758,3.87756 0.35668,1.87983 1.63641,7.69287 2.84384,12.91787 2.76885,11.98184 2.35219,16.22657 -3.3865,34.5 -3.03804,9.67388 -4.12004,14.51821 -3.50152,15.677 1.44618,2.7094 -8.995369,8.08035 -16.09711,8.28006 -3.025,0.0851 -6.45625,0.4795 -7.625,0.87652 -1.798391,0.6109 -2.125,0.33145 -2.125,-1.81819 z M 213.97864,120.0425 c -1.708,-0.91591 -22.49738,-5.04668 -25.47864,-5.06251 -3.2998,-0.0175 -5.3474,-1.75194 -3.5,-2.96468 2.69391,-1.76843 9.87153,-1.17017 12.9097,1.07605 1.88304,1.39219 5.54692,2.43837 10.95951,3.12934 5.51416,0.70395 8.13079,1.4601 8.13079,2.34963 0,1.80647 -1.25636,2.41864 -3.02136,1.47217 z M 209.75,112.24212 c -1.90306,-0.42277 -2.36237,-2.74562 -0.74105,-3.74765 1.50392,-0.92948 4.99105,0.44407 4.99105,1.96593 0,1.5669 -1.80699,2.32443 -4.25,1.78172 z M 62.95548,94.916813 C 61.78087,92.722034 63.968566,89 66.433199,89 68.395282,89 81.335582,82.211224 85.743015,78.869632 90.609088,75.18031 91.82961,75.49503 89.573736,79.85741 88.708181,81.531208 88,84.723027 88,86.95034 c 0,4.027402 -0.733035,4.916625 -2.552859,3.096801 -0.603812,-0.603812 -2.600231,0.06617 -5.45,1.828975 -8.679501,5.368951 -15.175323,6.527983 -17.041661,3.040697 z M 16,73.775041 C 16,71.941573 41.774646,59 45.426211,59 c 0.902152,0 3.94299,-1.166873 6.757418,-2.593052 4.973428,-2.520226 5.343264,-2.559988 13.168585,-1.415775 7.428548,1.086198 8.161118,1.035373 9.469077,-0.656948 1.266294,-1.638412 1.355873,-1.34412 0.839104,2.756708 -0.372427,2.955407 -0.147797,5.052318 0.630538,5.886044 C 77.267965,64.02354 77.020219,64.130013 75,63.531776 66.250787,60.940919 59.010066,62.113381 33.5,70.251709 18.702339,74.972521 16,75.516592 16,73.775041 Z M 45,50.166667 C 45,45.077665 54.465477,39.313191 56.767927,43 c 0.801535,1.283462 2.410359,2.036673 4.490547,2.102361 L 64.5,45.204723 l -3,0.748156 c -1.65,0.411485 -5.79894,1.940422 -9.219868,3.397638 C 44.881632,52.502063 45,52.488793 45,50.166667 Z"
         style="fill:#0d6efd;fill-opacity:1" />
      <path
         inkscape:connector-curvature="0"
         id="path30375"
         d="m 11.250678,101.94483 11.937819,10.0507 0.256477,6.98773 2.63756,24.91028 7.917696,13.51895 16.992591,8.46072 14.360048,4.10287 12.308612,4.39593 9.377991,0.58613 7.619617,0.58612 14.581781,-1.98003 39.63473,-10.91471 27.87508,-12.93586 L 164.11483,134.80861 71.507175,96.710526 62.129185,84.108851 36.632773,72.386363 14.066984,77.661482 5.25068,88.459646 Z"
         style="opacity:0;fill:#ffffff;stroke:#000000;stroke-width:1px;stroke-linecap:butt;stroke-linejoin:miter;stroke-opacity:1" />
    </g>
    <path
       style="opacity:0;fill:#ffff00;fill-opacity:1;stroke:none;stroke-opacity:1"
       id="path31216"
       d="m 27.105026,90.785738 c 0.522984,0.529618 1.132126,0.93907 1.736068,1.363478 0.493453,0.396937 1.001775,0.755292 1.3418,1.297903 0.276869,0.417343 0.661586,0.748412 1.048211,1.061808 0.587533,0.573925 1.172924,1.146524 1.862647,1.597423 0.438066,0.343383 0.932301,0.592911 1.355996,0.954549 0.09802,0.117849 0.798029,0.555538 0.746292,0.731333 -0.178065,0.605039 -0.930946,0.925402 -1.115019,1.52864 -0.0351,0.115042 0.156062,0.183063 0.234092,0.274595 0.441567,0.466403 0.850511,0.962723 1.192314,1.506643 0.311131,0.6424 0.679115,1.25254 1.036982,1.8691 0.821066,1.70269 -0.324871,0.36922 2.239416,0.38455 0.173851,10e-4 0.132284,0.32157 0.196415,0.48316 0.06599,0.16629 0.291522,0.35049 0.193942,0.50044 -0.357084,0.54871 -0.939737,0.91173 -1.409605,1.36759 0.513922,-0.10417 1.017394,-0.31342 1.541766,-0.31251 0.149875,2.6e-4 0.244167,0.18653 0.320107,0.31574 0.0067,0.0114 0.215514,0.8125 0.221143,0.83212 0.03637,0.12674 0.07884,0.25165 0.118259,0.37747 0.03855,0.13539 0.0771,0.27078 0.115646,0.40617 0.186452,0.66894 0.382287,1.33683 0.631501,1.98555 0.03125,0.0911 0.06082,0.18288 0.09375,0.27342 0.108272,0.29771 0.267258,0.54085 0.451771,0.79874 0.07818,0.10926 0.204663,0.19293 0.242697,0.32179 0.04614,0.15632 -0.0023,0.32596 -0.0034,0.48894 -1.291854,-1.87892 -1.361407,1.56046 -0.811305,1.46523 0.650483,-0.1126 1.210141,-0.55534 1.85646,-0.6898 0.149887,-0.0312 0.630377,0.81036 0.693615,0.9024 0.07673,0.14213 0.312467,0.28739 0.230187,0.42638 -0.322048,0.54399 -1.009259,0.81948 -1.300056,1.3808 -0.09041,0.17452 0.220998,0.3251 0.332399,0.48704 0.418401,0.60819 0.857469,1.19954 1.296506,1.79294 0.960522,1.2638 2.008877,2.45671 2.995167,3.70011 0.566377,0.69189 0.982666,1.49269 1.555703,2.17913 0.09289,0.11127 0.718316,0.77918 0.817937,0.88603 0.779805,0.89722 1.614158,1.7497 2.495695,2.54712 0.935084,0.75824 1.88258,1.50083 2.86123,2.20211 0.877259,0.67052 1.787987,1.28619 2.740296,1.84438 0.880925,0.40582 1.67967,0.94347 2.480846,1.48232 0,0 -0.138249,0.0884 -0.138249,0.0884 v 0 c -0.800774,-0.53897 -1.600244,-1.07474 -2.480295,-1.48147 -0.952497,-0.55875 -1.86332,-1.17511 -2.741109,-1.84564 -0.978929,-0.70188 -1.927067,-1.44462 -2.86222,-2.2037 -0.881601,-0.79803 -1.716308,-1.65073 -2.496424,-2.5483 -0.103872,-0.11142 -0.722231,-0.7717 -0.818771,-0.88742 -0.572756,-0.68653 -0.989293,-1.487 -1.555545,-2.17886 -0.986478,-1.24349 -2.03492,-2.43656 -2.995449,-3.70059 -0.439155,-0.59356 -0.878322,-1.1851 -1.296824,-1.79348 -0.111467,-0.16204 -0.135911,-0.48759 -0.332589,-0.48736 -0.647158,7.5e-4 -1.232537,0.45311 -1.878649,0.48991 -0.160979,0.009 -0.211759,-0.24321 -0.317638,-0.36481 -0.03196,-0.0418 -0.683114,-0.83662 -0.642319,-0.88954 0.376373,-0.48819 1.00633,-0.74853 1.359218,-1.25395 0.363847,-0.52113 -4.174416,-1.38752 -1.899896,0.16117 -0.183092,-0.0574 -0.386154,-0.0713 -0.549276,-0.17232 -0.119028,-0.0737 -0.175195,-0.21849 -0.260614,-0.32944 -0.271775,-0.353 -0.52659,-0.70503 -0.621974,-1.14953 -0.237809,-0.66607 -0.433471,-1.34713 -0.609649,-2.03183 -0.129951,-0.44962 -0.657027,-1.7616 -0.353329,-2.15186 0.358758,-0.46101 0.838097,-0.81397 1.257145,-1.22095 -0.585967,0.13347 -1.1576,0.42885 -1.757902,0.4004 -0.176973,-0.008 -0.131844,-0.3289 -0.198385,-0.4931 -0.06296,-0.15536 -0.283377,-0.32629 -0.190112,-0.46559 1.410211,-2.10622 1.811118,-0.60469 1.040654,-2.23745 -0.35777,-0.6164 -0.725724,-1.22633 -1.036693,-1.8686 -0.34144,-0.54323 -0.750241,-1.03862 -1.1911,-1.504595 -0.07786,-0.09125 -0.113723,-0.269038 -0.233587,-0.273759 -0.729026,-0.02872 -1.414312,0.460831 -2.143662,0.442081 -0.117075,-0.003 -0.158561,-0.172616 -0.243188,-0.253572 -0.07623,-0.07293 -0.156651,-0.141523 -0.238891,-0.207601 -0.08538,-0.0686 -0.175737,-0.130762 -0.263605,-0.196143 -0.429287,-0.332268 -0.910069,-0.590326 -1.323991,-0.944247 -0.649858,-0.500361 -1.183325,-1.145595 -1.862057,-1.616283 -0.444319,-0.32927 -0.86881,-0.680765 -1.1506,-1.166522 C 26.410931,94.967867 25.91657,94.65364 25.47206,94.291475 24.875351,93.859577 24.315892,93.38619 23.722327,92.9516 c 0,0 3.382694,-2.165902 3.382694,-2.165902 z"
       inkscape:connector-curvature="0" />
    <ellipse
       style="opacity:0;fill:#00ffff;fill-opacity:1;stroke:#ffffff;stroke-opacity:1"
       id="path31236"
       cx="34.203304"
       cy="82.466911"
       rx="11.807456"
       ry="1.2886814" />
  </g>
</svg>
