<?xml version="1.0" encoding="UTF-8" standalone="no"?>
<svg
   xmlns:dc="http://purl.org/dc/elements/1.1/"
   xmlns:cc="http://creativecommons.org/ns#"
   xmlns:rdf="http://www.w3.org/1999/02/22-rdf-syntax-ns#"
   xmlns:svg="http://www.w3.org/2000/svg"
   xmlns="http://www.w3.org/2000/svg"
   xmlns:sodipodi="http://sodipodi.sourceforge.net/DTD/sodipodi-0.dtd"
   xmlns:inkscape="http://www.inkscape.org/namespaces/inkscape"
   version="1.1"
   id="svg2"
   xml:space="preserve"
   width="831.50665"
   height="831.50665"
   viewBox="0 0 831.50665 831.50665"
   sodipodi:docname="eggcracked.svg"
   inkscape:version="0.92.5 (2060ec1f9f, 2020-04-08)"><metadata
     id="metadata8"><rdf:RDF><cc:Work
         rdf:about=""><dc:format>image/svg+xml</dc:format><dc:type
           rdf:resource="http://purl.org/dc/dcmitype/StillImage" /><dc:title></dc:title></cc:Work></rdf:RDF></metadata><defs
     id="defs6" /><sodipodi:namedview
     pagecolor="#ffffff"
     bordercolor="#666666"
     borderopacity="1"
     objecttolerance="10"
     gridtolerance="10"
     guidetolerance="10"
     inkscape:pageopacity="0"
     inkscape:pageshadow="2"
     inkscape:window-width="1920"
     inkscape:window-height="1023"
     id="namedview4"
     showgrid="false"
     inkscape:zoom="0.28382214"
     inkscape:cx="412.22999"
     inkscape:cy="415.75333"
     inkscape:window-x="1280"
     inkscape:window-y="28"
     inkscape:window-maximized="1"
     inkscape:current-layer="g12" /><g
     id="g10"
     inkscape:groupmode="layer"
     inkscape:label="ink_ext_XXXXXX"
     transform="matrix(1.3333333,0,0,-1.3333333,0,831.50667)"><g
       id="g12"
       transform="scale(0.1)"><path
         d="m 5273.6844,5610.4382 c -535.756,369.9556 -1393.0043,141.7134 -1914.5181,-509.6972 -13.393,-16.7198 -26.2764,-33.5186 -38.8081,-50.3849 l 163.9428,-301.51 453.5298,150.6705 58.1697,-488.6171 533.0264,166.6693 -10.4814,-512.0745 482.184,186.4875 -3.1542,-378.1239 422.5706,55.7029 c 394.9355,619.6495 343.9233,1342.2097 -146.4615,1680.8774"
         style="fill:#ffffff;fill-opacity:1;fill-rule:nonzero;stroke:none;stroke-width:1.16910589"
         id="path14"
         inkscape:connector-curvature="0" /><path
         d="m 5000.7295,4328.0325 c 16.0497,0 31.9903,-4.3603 45.638,-12.9118 22.8676,-14.2637 36.4183,-38.183 36.2484,-63.7811 l -2.3898,-289.7812 288.9925,38.1154 c 355.6178,584.2382 296.0773,1245.5635 -144.4113,1549.676 -153.6191,106.1555 -344.5056,162.1739 -552.1333,162.1739 -445.5959,0 -923.7765,-251.4404 -1247.8286,-656.1765 -3.0693,-3.887 -6.1385,-7.6839 -9.2077,-11.6498 l 109.182,-200.5822 385.3759,127.9341 c 23.6197,7.9205 49.7264,5.3066 70.9683,-7.0417 21.242,-12.3597 35.2294,-33.0342 38.0439,-56.1761 l 46.9967,-394.7424 436.643,136.5757 c 25.2453,7.9994 52.9654,3.8758 74.547,-10.6921 21.4968,-14.6581 33.9556,-38.1155 33.5189,-62.8235 l -8.1037,-395.7114 366.4511,141.7359 c 10.069,3.8758 20.8052,5.8588 31.4687,5.8588 z m -3.1542,-530.2253 c -19.7013,0 -38.893,6.5798 -53.8995,18.8606 -18.0029,14.5003 -28.1568,35.648 -27.987,57.8323 l 2.2201,263.0113 -367.9797,-142.1978 c -25.4151,-9.9035 -54.6759,-7.1319 -77.4464,7.2783 -22.8554,14.5004 -36.4304,38.6676 -35.8238,64.3333 l 8.2735,404.0938 -422.8253,-132.2155 c -23.547,-7.2107 -49.2169,-4.3603 -70.1191,7.9994 -20.9023,12.3596 -34.6229,32.8764 -37.3645,55.6916 l -46.8148,392.9285 -355.9575,-118.1884 c -38.7232,-12.9117 -82.0564,3.0871 -100.6537,37.3944 l -163.9428,301.4198 c -13.5628,24.877 -11.3428,54.6663 5.7139,77.5604 13.1382,17.6663 26.5312,35.0847 40.5186,52.5144 354.3319,442.6036 882.7484,717.5014 1379.1867,717.5014 243.0148,0 467.7841,-66.4626 649.8026,-192.1885 515.8848,-356.1762 588.139,-1121.753 168.1281,-1780.6222 -12.7136,-19.8745 -34.3802,-33.2707 -58.9461,-36.5155 l -422.5585,-55.6917 c -3.8457,-0.552 -7.6792,-0.7999 -11.5248,-0.7999"
         style="fill:#008ad7;fill-opacity:1;fill-rule:nonzero;stroke:none;stroke-width:1.16910589"
         id="path16"
         inkscape:connector-curvature="0" /><path
         d="m 1602.7074,3754.633 -78.5625,479.5248 532.6018,-132.9366 -45.723,520.7161 524.4981,-65.2796 -48.0158,445.0485 354.5866,75.1042 C 2286.1138,5666.051 1448.9913,5836.1341 946.41452,5452.4669 430.61219,5058.8287 462.5188,4231.2284 1017.5527,3603.9625 c 46.9239,-53.0777 96.1286,-102.8994 147.1409,-149.5663 l 43.6727,394.2016 394.3411,-93.9648"
         style="fill:#ffffff;fill-opacity:1;fill-rule:nonzero;stroke:none;stroke-width:1.16910589"
         id="path18"
         inkscape:connector-curvature="0" /><path
         d="m 1595.283,5581.8319 c -229.3671,0 -435.7938,-65.1106 -596.92212,-188.1437 C 518.312,5027.293 555.32469,4246.1231 1080.8418,3652.2857 c 6.8299,-7.7628 13.8176,-15.5256 20.9023,-23.2096 l 25.1604,227.3633 c 2.3898,22.0266 15.1035,41.98 34.6349,54.5763 19.5315,12.6075 44.0125,16.7987 67.2197,11.2555 l 274.3137,-65.3585 -59.9652,365.8318 c -4.1732,25.4291 5.7988,51.0272 26.4463,68.1302 20.5505,17.1142 49.1319,23.4461 75.8329,16.7198 l 420.3506,-104.8823 -36.3454,413.0396 c -2.0502,22.8941 7.2545,45.4727 25.2453,61.3251 18.0029,15.841 42.9934,23.525 67.2197,20.2013 l 421.8913,-52.5257 -37.7042,349.3599 c -4.1853,38.183 22.9403,73.1889 63.2042,81.7516 l 215.2947,45.5516 c -315.5237,290.1755 -714.2078,460.4163 -1089.26,460.4163 z M 1164.6936,3378.3455 c -21.1571,0 -41.8774,7.6051 -57.4904,21.8688 -53.7418,49.1118 -105.1665,101.4798 -152.93971,155.5039 -582.76242,658.6326 -609.71217,1535.8292 -59.88024,1955.5387 190.81375,145.6793 433.14915,222.6764 700.89975,222.6764 460.6994,0 949.7983,-226.9578 1308.3883,-607.0534 19.0219,-20.1224 25.1603,-48.0865 16.2923,-73.5945 -8.868,-25.4291 -31.5536,-44.684 -59.6254,-50.7004 l -284.1279,-60.1308 40.7734,-378.1915 c 2.4748,-23.1306 -6.4782,-46.1036 -24.4811,-62.2714 -18.0878,-16.1565 -43.1632,-23.9193 -67.8141,-20.6632 l -423.8444,52.6721 37.5343,-426.5935 c 2.22,-24.6405 -8.7952,-48.7175 -29.2608,-64.5586 -20.4776,-15.8524 -47.8459,-21.5533 -73.6129,-15.0524 l -411.5675,102.7416 59.7104,-364.4122 c 4.1004,-25.2714 -5.6289,-50.7005 -26.0096,-67.8823 -20.3927,-17.1142 -48.7922,-23.6151 -75.3234,-17.2832 l -302.3006,72.096 -33.8586,-306.4222 c -3.239,-29.1471 -24.1413,-53.9453 -53.7418,-63.8488 -9.0378,-3.0082 -18.4274,-4.4391 -27.72,-4.4391"
         style="fill:#008ad7;fill-opacity:1;fill-rule:nonzero;stroke:none;stroke-width:1.16910589"
         id="path20"
         inkscape:connector-curvature="0" /><path
         d="m 2081.4825,3016.4007 c 0,0 -253.8481,496.2221 106.877,707.0233 360.6402,210.9702 601.0104,-384.4446 788.0755,-86.7428 186.9681,297.713 400.6372,396.9732 734.5884,248.0378 333.9392,-148.8565 80.176,-682.2364 360.7252,-769.137 280.5491,-86.9118 921.6535,-260.4763 854.7735,-831.093 C 4859.8241,1713.7034 4592.583,1540.06 4539.2658,1329.18 4485.7909,1118.2999 4525.8849,758.5634 3978.2645,572.55246 3430.5592,386.39056 2896.162,944.6453 2682.4928,783.3615 c -213.6691,-161.21387 -681.2833,-223.32642 -881.5595,0 -200.361,223.3186 66.7951,880.8358 -93.484,1091.7158 -160.2792,210.8913 -120.1851,682.2365 80.1759,793.9465 200.3732,111.6085 293.8573,223.3072 293.8573,347.3769"
         style="fill:#ffffff;fill-opacity:1;fill-rule:nonzero;stroke:none;stroke-width:1.16910589"
         id="path22"
         inkscape:connector-curvature="0" /><path
         d="m 2780.5868,889.0325 c 107.6534,0 231.0776,-53.3143 373.9482,-115.0224 177.8454,-76.85059 379.3225,-163.90776 585.5794,-163.90776 h 0.085 c 74.2073,0 142.8707,11.0065 209.9205,33.83522 414.1151,140.68584 452.7656,376.67954 486.7939,584.86684 6.9877,42.3855 13.5629,82.1572 22.6007,117.8053 21.157,83.8134 68.4935,157.5657 123.1694,243.0466 98.2638,153.5999 220.584,344.6729 262.4735,702.9899 57.2235,488.234 -478.4476,652.4471 -766.324,740.6997 l -33.0215,10.1401 c -186.2038,57.5957 -201.2103,243.7564 -214.4334,407.902 -14.9216,185.0566 -33.7858,310.3768 -155.7542,364.7277 -278.9235,124.5316 -447.9858,69.7187 -628.4757,-217.7753 -51.1821,-81.5151 -116.7762,-122.8641 -194.817,-122.8641 -86.4964,0 -164.0399,51.4891 -246.1811,105.9865 -120.1002,79.8588 -244.9801,153.3744 -374.203,77.6392 -295.7255,-172.8547 -78.7324,-605.7125 -76.5123,-610.0615 5.2043,-10.2302 7.9338,-21.3956 7.9338,-32.6398 0,-152.5858 -109.097,-287.4941 -333.5994,-412.5777 -52.7228,-29.395 -98.2638,-108.6905 -121.7258,-212.0743 -39.0629,-171.9872 -11.1729,-370.8231 66.2856,-472.7761 93.569,-123.033 72.2421,-334.6229 49.7263,-558.6625 -20.4777,-203.9848 -43.7577,-435.2352 39.7423,-528.3099 91.9555,-102.43522 248.0493,-117.72422 332.9201,-117.72422 160.5339,0 330.9548,50.30382 434.1682,128.10082 41.0281,30.9724 91.4459,46.6557 149.7006,46.6557 z M 3740.1144,458.001 c -242.4204,0 -471.0232,98.70701 -654.6673,178.08475 -120.0152,51.81473 -233.3825,100.84655 -304.8603,100.84655 -26.3493,0 -38.6383,-6.73751 -46.4024,-12.59623 -132.6318,-100.04888 -338.549,-162.16143 -537.4664,-162.16143 -196.0181,0 -358.9297,61.236 -458.7342,172.4694 -127.0878,141.63446 -101.5877,394.90016 -76.9369,639.85086 17.8331,177.9248 38.0439,379.6112 -20.4776,456.6984 -120.8645,159.0754 -133.6509,411.9354 -92.8047,591.922 33.6159,148.3045 103.8927,258.8202 197.7285,311.098 161.8077,90.2355 244.9801,177.6881 253.4235,267.0448 -95.3644,199.3204 -178.3669,597.0034 145.7701,786.578 65.8489,38.4985 134.5971,57.9901 204.5464,57.9901 140.3109,0 257.7665,-77.9548 352.1118,-140.6205 54.8458,-36.4368 117.031,-77.6281 150.9866,-77.6281 19.5193,0 39.7422,25.8235 53.39,47.4444 222.3672,353.8778 479.9761,439.032 840.7861,278.3004 216.3987,-96.4886 234.0619,-314.9737 248.1342,-490.6113 12.5317,-154.5463 24.1414,-250.5616 102.9465,-274.9655 l 32.5969,-9.9823 c 308.1722,-94.5056 949.2766,-290.9755 877.7988,-901.5103 -45.723,-391.1933 -183.8139,-606.828 -284.5525,-764.3148 -49.7263,-77.7182 -89.0561,-139.1108 -104.4871,-200.109 -8.1038,-32.1554 -13.8298,-67.8147 -20.0531,-105.9189 C 4564.0986,993.5994 4511.5457,672.69035 4006.4092,501.09638 3922.3027,472.50245 3832.7371,458.001 3740.1993,458.001 h -0.085"
         style="fill:#008ad7;fill-opacity:1;fill-rule:nonzero;stroke:none;stroke-width:1.16910589"
         id="path24"
         inkscape:connector-curvature="0" /><path
         d="m 3791.1994,2098.317 c 0,-342.5435 -290.0116,-620.2016 -647.8373,-620.2016 -357.7408,0 -647.8495,277.6581 -647.8495,620.2016 0,342.5548 290.1087,620.3707 647.8495,620.3707 357.8257,0 647.8373,-277.8159 647.8373,-620.3707"
         style="fill:#f9a72b;fill-opacity:1;fill-rule:nonzero;stroke:none;stroke-width:1.16910589"
         id="path26"
         inkscape:connector-curvature="0" /></g></g></svg>